<svg width="66" height="94" viewBox="0 0 43 93" fill="none" xmlns="http://www.w3.org/2000/svg">
<path d="M41.2085 92V93H42.2085V92H41.2085ZM23.2871 92H22.2871V93H23.2871V92ZM23.2871 22.9189H24.2871V21.5618L22.9909 21.9638L23.2871 22.9189ZM1.89307 29.5542H0.893066V30.9113L2.18929 30.5093L1.89307 29.5542ZM1.89307 14.9814L1.55584 14.04L0.893066 14.2774V14.9814H1.89307ZM39.2861 1.58691V0.586914H39.1124L38.9489 0.645491L39.2861 1.58691ZM41.2085 1.58691H42.2085V0.586914H41.2085V1.58691ZM41.2085 91H23.2871V93H41.2085V91ZM24.2871 92V22.9189H22.2871V92H24.2871ZM22.9909 21.9638L1.59684 28.5991L2.18929 30.5093L23.5833 23.8741L22.9909 21.9638ZM2.89307 29.5542V14.9814H0.893066V29.5542H2.89307ZM2.23029 15.9229L39.6234 2.52834L38.9489 0.645491L1.55584 14.04L2.23029 15.9229ZM39.2861 2.58691H41.2085V0.586914H39.2861V2.58691ZM40.2085 1.58691V92H42.2085V1.58691H40.2085Z" fill="white"/>
</svg>
