<svg width="133" height="96" viewBox="0 0 133 96" fill="none" xmlns="http://www.w3.org/2000/svg">
<path d="M41.2456 93V94H42.2456V93H41.2456ZM23.3242 93H22.3242V94H23.3242V93ZM23.3242 23.9189H24.3242V22.5618L23.028 22.9638L23.3242 23.9189ZM1.93018 30.5542H0.930176V31.9113L2.2264 31.5093L1.93018 30.5542ZM1.93018 15.9814L1.59295 15.04L0.930176 15.2774V15.9814H1.93018ZM39.3232 2.58691V1.58691H39.1495L38.986 1.64549L39.3232 2.58691ZM41.2456 2.58691H42.2456V1.58691H41.2456V2.58691ZM41.2456 92H23.3242V94H41.2456V92ZM24.3242 93V23.9189H22.3242V93H24.3242ZM23.028 22.9638L1.63395 29.5991L2.2264 31.5093L23.6204 24.8741L23.028 22.9638ZM2.93018 30.5542V15.9814H0.930176V30.5542H2.93018ZM2.2674 16.9229L39.6605 3.52834L38.986 1.64549L1.59295 15.04L2.2674 16.9229ZM39.3232 3.58691H41.2456V1.58691H39.3232V3.58691ZM40.2456 2.58691V93H42.2456V2.58691H40.2456ZM123.659 84.3184L124.447 84.934L123.659 84.3184ZM70.3911 56.5991H69.3911L69.3912 56.6094L70.3911 56.5991ZM78.2046 11.2686L77.4252 10.6421L77.4228 10.6451L78.2046 11.2686ZM123.411 11.2065L122.631 11.8325L122.633 11.8349L123.411 11.2065ZM131.411 39.0498H132.411L132.411 39.0396L131.411 39.0498ZM110.389 21.1284L109.528 21.6368L109.531 21.6429L109.535 21.649L110.389 21.1284ZM91.4751 20.8804L90.6253 20.3533L90.6234 20.3563L91.4751 20.8804ZM88.3125 36.0732L87.3127 36.0553L87.3125 36.0643V36.0732H88.3125ZM91.2891 74.4585L90.4134 74.9416L90.4202 74.9535L91.2891 74.4585ZM110.451 74.6445L109.581 74.1518L110.451 74.6445ZM113.489 58.8936L114.489 58.9053V58.8936H113.489ZM130.411 55.6689C130.411 68.0351 127.849 77.3314 122.871 83.7027L124.447 84.934C129.805 78.0761 132.411 68.2729 132.411 55.6689H130.411ZM122.871 83.7027C117.929 90.0281 110.683 93.2402 100.963 93.2402V95.2402C111.169 95.2402 119.054 91.8378 124.447 84.934L122.871 83.7027ZM100.963 93.2402C91.3653 93.2402 84.1542 90.0883 79.1705 83.8785L77.6107 85.1303C83.045 91.9016 90.8821 95.2402 100.963 95.2402V93.2402ZM79.1705 83.8785C74.1531 77.6266 71.5138 68.5765 71.3911 56.5889L69.3912 56.6094C69.5165 68.8477 72.2102 78.401 77.6107 85.1303L79.1705 83.8785ZM71.3911 56.5991V39.98H69.3911V56.5991H71.3911ZM71.3911 39.98C71.3911 27.4873 73.9747 18.1765 78.9864 11.892L77.4228 10.6451C72.0165 17.4244 69.3911 27.2546 69.3911 39.98H71.3911ZM78.984 11.8951C84.0104 5.64171 91.2437 2.4707 100.839 2.4707V0.470703C90.7557 0.470703 82.8994 3.8316 77.4252 10.6421L78.984 11.8951ZM100.839 2.4707C110.436 2.4707 117.648 5.62263 122.631 11.8324L124.191 10.5806C118.757 3.80934 110.92 0.470703 100.839 0.470703V2.4707ZM122.633 11.8349C127.648 18.0442 130.288 27.0719 130.411 39.06L132.411 39.0396C132.285 26.8018 129.592 17.2673 124.189 10.5782L122.633 11.8349ZM130.411 39.0498V55.6689H132.411V39.0498H130.411ZM114.489 37.4375C114.489 29.9081 113.458 24.2405 111.242 20.6078L109.535 21.649C111.454 24.7963 112.489 30.0014 112.489 37.4375H114.489ZM111.25 20.62C109.026 16.8525 105.495 14.9814 100.839 14.9814V16.9814C104.864 16.9814 107.7 18.5417 109.528 21.6368L111.25 20.62ZM100.839 14.9814C96.3163 14.9814 92.8536 16.7606 90.6253 20.3533L92.3249 21.4075C94.148 18.4682 96.9278 16.9814 100.839 16.9814V14.9814ZM90.6234 20.3563C88.4961 23.8132 87.4376 29.0982 87.3127 36.0553L89.3123 36.0912C89.4354 29.2403 90.4854 24.3967 92.3268 21.4045L90.6234 20.3563ZM87.3125 36.0732V58.0254H89.3125V36.0732H87.3125ZM87.3125 58.0254C87.3125 65.4386 88.3059 71.1216 90.4135 74.9416L92.1646 73.9754C90.3035 70.602 89.3125 65.3296 89.3125 58.0254H87.3125ZM90.4202 74.9535C92.6407 78.8508 96.2157 80.7915 100.963 80.7915V78.7915C96.8631 78.7915 93.9888 77.1769 92.1579 73.9634L90.4202 74.9535ZM100.963 80.7915C105.657 80.7915 109.178 78.9222 111.321 75.1373L109.581 74.1518C107.838 77.2295 105.033 78.7915 100.963 78.7915V80.7915ZM111.321 75.1373C113.389 71.4842 114.406 66.0288 114.489 58.9053L112.489 58.8819C112.407 65.8969 111.398 70.9422 109.581 74.1518L111.321 75.1373ZM114.489 58.8936V37.4375H112.489V58.8936H114.489Z" fill="white"/>
</svg>
