<svg width="67" height="94" viewBox="0 0 67 94" fill="none" xmlns="http://www.w3.org/2000/svg">
<path d="M65.564 93V94H66.564V93H65.564ZM3.67627 93H2.67627V94H3.67627V93ZM3.67627 80.7217L2.947 80.0374L2.67627 80.326V80.7217H3.67627ZM32.8838 49.5918L33.6131 50.2761L33.6215 50.2669L32.8838 49.5918ZM41.7515 38.1196L40.892 37.6083L40.8873 37.6164L41.7515 38.1196ZM41.6274 19.3921L40.8748 20.0506L40.8808 20.0573L41.6274 19.3921ZM23.334 20.1362L22.5676 19.4938L22.5667 19.4949L23.334 20.1362ZM19.8613 31.1123V32.1123H20.8613V31.1123H19.8613ZM1.87793 31.1123H0.87793V32.1123H1.87793V31.1123ZM5.78467 16.0435L4.9203 15.5406L4.91691 15.5465L5.78467 16.0435ZM16.9468 5.37744L17.4182 6.25939L17.424 6.2562L16.9468 5.37744ZM54.8979 8.16797L54.2412 8.92206L54.2442 8.92466L54.8979 8.16797ZM59.1768 40.7241L60.0712 41.1713L59.1768 40.7241ZM47.2705 56.9092L47.9961 57.5973L48.0027 57.5904L48.0091 57.5833L47.2705 56.9092ZM26.7446 78.5513L26.0191 77.8631L24.418 79.5513H26.7446V78.5513ZM65.564 78.5513H66.564V77.5513H65.564V78.5513ZM65.564 92H3.67627V94H65.564V92ZM4.67627 93V80.7217H2.67627V93H4.67627ZM4.40553 81.4059L33.6131 50.276L32.1545 48.9076L2.947 80.0374L4.40553 81.4059ZM33.6215 50.2669C37.6558 45.8583 40.6637 41.975 42.6156 38.6228L40.8873 37.6164C39.0358 40.7962 36.132 44.561 32.1461 48.9167L33.6215 50.2669ZM42.6109 38.6309C44.6194 35.2549 45.666 31.9787 45.666 28.8179H43.666C43.666 31.5274 42.7696 34.4524 40.8921 37.6083L42.6109 38.6309ZM45.666 28.8179C45.666 24.6418 44.609 21.2354 42.3741 18.7269L40.8808 20.0573C42.6973 22.0963 43.666 24.9738 43.666 28.8179H45.666ZM42.38 18.7336C40.1228 16.1539 36.9263 14.9194 32.9458 14.9194V16.9194C36.4894 16.9194 39.0807 18.0001 40.8749 20.0506L42.38 18.7336ZM32.9458 14.9194C28.6335 14.9194 25.1354 16.4305 22.5676 19.4938L24.1004 20.7786C26.2455 18.2196 29.1552 16.9194 32.9458 16.9194V14.9194ZM22.5667 19.4949C20.0655 22.4874 18.8613 26.3928 18.8613 31.1123H20.8613C20.8613 26.7367 21.9722 23.3248 24.1013 20.7775L22.5667 19.4949ZM19.8613 30.1123H1.87793V32.1123H19.8613V30.1123ZM2.87793 31.1123C2.87793 25.7794 4.13892 20.9291 6.65242 16.5404L4.91691 15.5465C2.22144 20.2529 0.87793 25.4485 0.87793 31.1123H2.87793ZM6.64902 16.5464C9.19832 12.1647 12.7804 8.73816 17.4182 6.25937L16.4754 4.49551C11.522 7.14303 7.66268 10.8271 4.92032 15.5406L6.64902 16.5464ZM17.424 6.2562C22.0571 3.74 27.3261 2.4707 33.2559 2.4707V0.470703C27.0313 0.470703 21.4276 1.8059 16.4695 4.49868L17.424 6.2562ZM33.2559 2.4707C42.4054 2.4707 49.3545 4.66591 54.2412 8.92205L55.5547 7.41389C50.1888 2.74034 42.7099 0.470703 33.2559 0.470703V2.4707ZM54.2442 8.92466C59.1494 13.1627 61.6494 19.1664 61.6494 27.0815H63.6494C63.6494 18.7082 60.9818 12.1029 55.5517 7.41128L54.2442 8.92466ZM61.6494 27.0815C61.6494 31.3681 60.5391 35.7634 58.2823 40.2769L60.0712 41.1713C62.4446 36.4244 63.6494 31.7246 63.6494 27.0815H61.6494ZM58.2823 40.2769C56.0257 44.7901 52.1251 50.1072 46.5319 56.235L48.0091 57.5833C53.6607 51.3915 57.6976 45.9186 60.0712 41.1713L58.2823 40.2769ZM46.5449 56.221L26.0191 77.8631L27.4702 79.2394L47.9961 57.5973L46.5449 56.221ZM26.7446 79.5513H65.564V77.5513H26.7446V79.5513ZM64.564 78.5513V93H66.564V78.5513H64.564Z" fill="white"/>
</svg>
