<svg width="66" height="96" viewBox="0 0 66 96" fill="none" xmlns="http://www.w3.org/2000/svg">
<path d="M21.9077 39.918V38.918H20.9077V39.918H21.9077ZM41.5654 18.958L40.8796 19.6858L40.8866 19.6923L41.5654 18.958ZM24.0161 18.772L24.6425 19.5515L24.6509 19.5447L24.0161 18.772ZM20.5435 26.0894V27.0894H21.5435V26.0894H20.5435ZM2.62207 26.0894H1.62207V27.0894H2.62207V26.0894ZM6.40479 13.439L5.57836 12.8759L5.577 12.8779L6.40479 13.439ZM17.0708 4.6333L16.6533 3.72462L16.6502 3.72607L17.0708 4.6333ZM54.6499 8.354L54.0034 9.11696L54.0068 9.11982L54.6499 8.354ZM58.9907 38.6157L58.1816 38.0281L58.9907 38.6157ZM49.0688 46.6152L48.655 45.7049L46.409 46.7258L48.732 47.5568L49.0688 46.6152ZM60.417 54.8008L59.5907 55.3641L59.5951 55.3705L60.417 54.8008ZM55.394 86.9849L54.7581 86.2131L54.7555 86.2153L55.394 86.9849ZM10.0635 87.1089L9.42329 87.8771L9.42602 87.8794L10.0635 87.1089ZM1.50586 68.2573V67.2573H0.505859V68.2573H1.50586ZM19.4272 68.2573H20.4272V67.2573H19.4272V68.2573ZM23.21 76.5669L22.5612 77.3279L22.5673 77.3331L23.21 76.5669ZM42.6196 76.4429L43.301 77.1748L43.3015 77.1743L42.6196 76.4429ZM21.9077 53.9326H20.9077V54.9326H21.9077V53.9326ZM21.9077 40.918H31.4575V38.918H21.9077V40.918ZM31.4575 40.918C36.1559 40.918 39.836 39.7432 42.2855 37.2012L40.8454 35.8134C38.9127 37.819 35.8542 38.918 31.4575 38.918V40.918ZM42.2855 37.2012C44.6898 34.7062 45.8521 31.4216 45.8521 27.4536H43.8521C43.8521 31.0097 42.8233 33.7609 40.8454 35.8134L42.2855 37.2012ZM45.8521 27.4536C45.8521 23.6027 44.6839 20.4793 42.2443 18.2237L40.8866 19.6923C42.8291 21.4882 43.8521 24.0285 43.8521 27.4536H45.8521ZM42.2512 18.2302C39.8672 15.9837 36.6181 14.9194 32.6357 14.9194V16.9194C36.2602 16.9194 38.9642 17.8809 40.8796 19.6858L42.2512 18.2302ZM32.6357 14.9194C29.0084 14.9194 25.901 15.9296 23.3814 17.9992L24.6509 19.5447C26.7614 17.811 29.4004 16.9194 32.6357 16.9194V14.9194ZM23.3897 17.9925C20.834 20.0462 19.5435 22.7741 19.5435 26.0894H21.5435C21.5435 23.3688 22.568 21.2185 24.6425 19.5515L23.3897 17.9925ZM20.5435 25.0894H2.62207V27.0894H20.5435V25.0894ZM3.62207 26.0894C3.62207 21.5662 4.82861 17.5468 7.23257 14L5.577 12.8779C2.93734 16.7725 1.62207 21.1867 1.62207 26.0894H3.62207ZM7.2312 14.002C9.68256 10.4041 13.0907 7.58087 17.4914 5.54053L16.6502 3.72607C11.9559 5.90253 8.25331 8.94978 5.57837 12.8759L7.2312 14.002ZM17.4883 5.54198C21.9349 3.49893 26.8345 2.4707 32.2017 2.4707V0.470703C26.5721 0.470703 21.3844 1.55087 16.6533 3.72462L17.4883 5.54198ZM32.2017 2.4707C41.5969 2.4707 48.8225 4.72699 54.0034 9.11695L55.2964 7.59106C49.6459 2.80328 41.906 0.470703 32.2017 0.470703V2.4707ZM54.0068 9.11982C59.1643 13.4505 61.7734 19.4364 61.7734 27.2056H63.7734C63.7734 18.9343 60.9669 12.3525 55.293 7.58818L54.0068 9.11982ZM61.7734 27.2056C61.7734 31.1201 60.5844 34.7193 58.1816 38.0281L59.7999 39.2033C62.4407 35.5668 63.7734 31.5592 63.7734 27.2056H61.7734ZM58.1816 38.0281C55.7663 41.354 52.5981 43.9126 48.655 45.7049L49.4827 47.5256C53.7251 45.5972 57.1715 42.8227 59.7999 39.2033L58.1816 38.0281ZM48.732 47.5568C53.6639 49.321 57.2542 51.9371 59.5908 55.3641L61.2432 54.2374C58.6189 50.3884 54.6438 47.5475 49.4057 45.6737L48.732 47.5568ZM59.5951 55.3705C61.9872 58.8213 63.1997 62.9163 63.1997 67.6992H65.1997C65.1997 62.5602 63.8904 58.0563 61.2388 54.2311L59.5951 55.3705ZM63.1997 67.6992C63.1997 75.4393 60.384 81.5777 54.7581 86.2131L56.0299 87.7566C62.145 82.7182 65.1997 75.9995 65.1997 67.6992H63.1997ZM54.7555 86.2153C49.1501 90.8666 41.6657 93.2402 32.2017 93.2402V95.2402C42.0026 95.2402 49.9798 92.777 56.0326 87.7544L54.7555 86.2153ZM32.2017 93.2402C23.3716 93.2402 16.2327 90.9151 10.7009 86.3384L9.42602 87.8794C15.3871 92.8112 23.007 95.2402 32.2017 95.2402V93.2402ZM10.7037 86.3407C5.23986 81.7875 2.50586 75.7918 2.50586 68.2573H0.505859C0.505859 76.3498 3.47694 82.9218 9.42329 87.8771L10.7037 86.3407ZM1.50586 69.2573H19.4272V67.2573H1.50586V69.2573ZM18.4272 68.2573C18.4272 71.9324 19.8107 74.9832 22.5612 77.3279L23.8587 75.8059C21.5656 73.8511 20.4272 71.3622 20.4272 68.2573H18.4272ZM22.5673 77.3331C25.331 79.651 28.7082 80.7915 32.6357 80.7915V78.7915C29.1219 78.7915 26.2152 77.7823 23.8526 75.8007L22.5673 77.3331ZM32.6357 80.7915C37.0686 80.7915 40.668 79.6262 43.301 77.1748L41.9382 75.711C39.7757 77.7243 36.7192 78.7915 32.6357 78.7915V80.7915ZM43.3015 77.1743C45.9682 74.6885 47.2783 71.4137 47.2783 67.4512H45.2783C45.2783 70.93 44.1494 73.6497 41.9378 75.7114L43.3015 77.1743ZM47.2783 67.4512C47.2783 62.7647 45.9841 59.0737 43.23 56.572C40.4942 54.087 36.4881 52.9326 31.3955 52.9326V54.9326C36.2248 54.9326 39.6601 56.0313 41.8853 58.0525C44.0921 60.057 45.2783 63.1252 45.2783 67.4512H47.2783ZM31.3955 52.9326H21.9077V54.9326H31.3955V52.9326ZM22.9077 53.9326V39.918H20.9077V53.9326H22.9077Z" fill="white"/>
</svg>
