<svg width="69" height="93" viewBox="0 0 69 93" fill="none" xmlns="http://www.w3.org/2000/svg">
<path d="M57.6963 58.0176H56.6963V59.0176H57.6963V58.0176ZM67.9282 58.0176H68.9282V57.0176H67.9282V58.0176ZM67.9282 72.4663V73.4663H68.9282V72.4663H67.9282ZM57.6963 72.4663V71.4663H56.6963V72.4663H57.6963ZM57.6963 92V93H58.6963V92H57.6963ZM39.7749 92H38.7749V93H39.7749V92ZM39.7749 72.4663H40.7749V71.4663H39.7749V72.4663ZM2.75391 72.4663L1.75645 72.5376L1.82279 73.4663H2.75391V72.4663ZM1.94775 61.1802L1.10279 60.6454L0.926858 60.9233L0.950295 61.2514L1.94775 61.1802ZM39.5889 1.71094V0.710938H39.0383L38.7439 1.17612L39.5889 1.71094ZM57.6963 1.71094H58.6963V0.710938H57.6963V1.71094ZM19.8071 58.0176L18.961 57.4846L17.9953 59.0176H19.8071V58.0176ZM39.7749 58.0176V59.0176H40.7749V58.0176H39.7749ZM39.7749 26.1436H40.7749V22.4026L38.9083 25.6446L39.7749 26.1436ZM38.5967 28.1899L39.4428 28.7229L39.4534 28.7061L39.4633 28.6889L38.5967 28.1899ZM57.6963 59.0176H67.9282V57.0176H57.6963V59.0176ZM66.9282 58.0176V72.4663H68.9282V58.0176H66.9282ZM67.9282 71.4663H57.6963V73.4663H67.9282V71.4663ZM56.6963 72.4663V92H58.6963V72.4663H56.6963ZM57.6963 91H39.7749V93H57.6963V91ZM40.7749 92V72.4663H38.7749V92H40.7749ZM39.7749 71.4663H2.75391V73.4663H39.7749V71.4663ZM3.75136 72.3951L2.94521 61.1089L0.950295 61.2514L1.75645 72.5376L3.75136 72.3951ZM2.79272 61.715L40.4338 2.24576L38.7439 1.17612L1.10279 60.6454L2.79272 61.715ZM39.5889 2.71094H57.6963V0.710938H39.5889V2.71094ZM56.6963 1.71094V58.0176H58.6963V1.71094H56.6963ZM19.8071 59.0176H39.7749V57.0176H19.8071V59.0176ZM40.7749 58.0176V26.1436H38.7749V58.0176H40.7749ZM38.9083 25.6446L37.7301 27.691L39.4633 28.6889L40.6415 26.6425L38.9083 25.6446ZM37.7506 27.6569L18.961 57.4846L20.6532 58.5506L39.4428 28.7229L37.7506 27.6569Z" fill="white"/>
</svg>
