<svg width="64" height="95" viewBox="0 0 64 95" fill="none" xmlns="http://www.w3.org/2000/svg">
<path d="M3.34277 47.5996L2.34915 47.4868L2.25014 48.3591L3.10222 48.5702L3.34277 47.5996ZM8.55176 1.71094V0.710938H7.65885L7.55814 1.59815L8.55176 1.71094ZM59.1533 1.71094H60.1533V0.710938H59.1533V1.71094ZM59.1533 16.6558V17.6558H60.1533V16.6558H59.1533ZM23.2485 16.6558V15.6558H22.357L22.2551 16.5415L23.2485 16.6558ZM21.0161 36.0654L20.0227 35.9512L19.8047 37.8459L21.4871 36.9475L21.0161 36.0654ZM54.8125 40.6543L54.0746 41.3292L54.8125 40.6543ZM58.4092 78.7295L57.5277 78.2573L57.5262 78.2601L58.4092 78.7295ZM47.8672 89.4575L48.3488 90.3339L48.3548 90.3306L47.8672 89.4575ZM16.4272 89.9536L15.9961 90.8559L16.0026 90.859L16.4272 89.9536ZM5.32715 80.5898L4.4964 81.1465L4.50038 81.1524L5.32715 80.5898ZM1.04834 66.8853V65.8853H0.0155621L0.0488596 66.9175L1.04834 66.8853ZM18.7837 66.8853L19.7788 66.7868L19.6897 65.8853H18.7837V66.8853ZM22.6904 75.6909L22.0038 76.4179L22.0107 76.4245L22.0178 76.4309L22.6904 75.6909ZM40.9219 74.4507L41.7192 75.0543L41.7232 75.0489L40.9219 74.4507ZM19.3418 49.522L18.6969 48.7577L18.6788 48.773L18.6613 48.7892L19.3418 49.522ZM17.6055 51.1343L17.3649 52.1049L17.8897 52.235L18.2859 51.8671L17.6055 51.1343ZM4.33639 47.7124L9.54538 1.82373L7.55814 1.59815L2.34915 47.4868L4.33639 47.7124ZM8.55176 2.71094H59.1533V0.710938H8.55176V2.71094ZM58.1533 1.71094V16.6558H60.1533V1.71094H58.1533ZM59.1533 15.6558H23.2485V17.6558H59.1533V15.6558ZM22.2551 16.5415L20.0227 35.9512L22.0096 36.1797L24.242 16.77L22.2551 16.5415ZM21.4871 36.9475C25.6013 34.7506 29.9665 33.6548 34.5967 33.6548V31.6548C29.6357 31.6548 24.9472 32.8327 20.5451 35.1833L21.4871 36.9475ZM34.5967 33.6548C42.9729 33.6548 49.4217 36.2426 54.0746 41.3292L55.5504 39.9794C50.4468 34.4 43.4183 31.6548 34.5967 31.6548V33.6548ZM54.0746 41.3292C58.7354 46.4244 61.1299 53.6158 61.1299 63.0405H63.1299C63.1299 53.283 60.6462 45.5502 55.5504 39.9794L54.0746 41.3292ZM61.1299 63.0405C61.1299 68.7233 59.9221 73.7877 57.5277 78.2573L59.2907 79.2017C61.8572 74.4109 63.1299 69.016 63.1299 63.0405H61.1299ZM57.5262 78.2601C55.1784 82.6772 51.8026 86.1139 47.3795 88.5845L48.3548 90.3306C53.1095 87.6748 56.7617 83.9595 59.2922 79.1988L57.5262 78.2601ZM47.3856 88.5811C42.9702 91.0076 37.7266 92.2402 31.6201 92.2402V94.2402C37.9987 94.2402 43.5864 92.9511 48.3488 90.3339L47.3856 88.5811ZM31.6201 92.2402C26.3012 92.2402 21.3829 91.1734 16.8519 89.0482L16.0026 90.859C20.8146 93.116 26.0249 94.2402 31.6201 94.2402V92.2402ZM16.8584 89.0513C12.3353 86.8899 8.7762 83.8813 6.15392 80.0273L4.50038 81.1524C7.33513 85.3186 11.1761 88.5525 15.9961 90.8559L16.8584 89.0513ZM6.15788 80.0332C3.58155 76.1885 2.20754 71.8044 2.04782 66.853L0.0488596 66.9175C0.219868 72.2187 1.6984 76.971 4.49642 81.1465L6.15788 80.0332ZM1.04834 67.8853H18.7837V65.8853H1.04834V67.8853ZM17.7885 66.9837C18.1786 70.9279 19.5582 74.1082 22.0038 76.4179L23.3771 74.9639C21.3578 73.0569 20.1329 70.3667 19.7788 66.7868L17.7885 66.9837ZM22.0178 76.4309C24.5086 78.6952 27.7198 79.7915 31.5581 79.7915V77.7915C28.1204 77.7915 25.4198 76.8207 23.3631 74.951L22.0178 76.4309ZM31.5581 79.7915C35.881 79.7915 39.3152 78.2294 41.7191 75.0543L40.1246 73.847C38.1464 76.4598 35.3381 77.7915 31.5581 77.7915V79.7915ZM41.7232 75.0489C44.0902 71.878 45.2085 67.5025 45.2085 62.0483H43.2085C43.2085 67.2602 42.1357 71.1529 40.1205 73.8525L41.7232 75.0489ZM45.2085 62.0483C45.2085 56.7668 43.9085 52.561 41.1602 49.5874L39.6914 50.9449C41.9867 53.4283 43.2085 57.0773 43.2085 62.0483H45.2085ZM41.1602 49.5874C38.4043 46.6057 34.5333 45.1733 29.6978 45.1733V47.1733C34.1226 47.1733 37.4036 48.4695 39.6914 50.9449L41.1602 49.5874ZM29.6978 45.1733C25.2598 45.1733 21.5619 46.3403 18.6969 48.7577L19.9867 50.2863C22.4133 48.2388 25.6194 47.1733 29.6978 47.1733V45.1733ZM18.6613 48.7892L16.925 50.4015L18.2859 51.8671L20.0222 50.2548L18.6613 48.7892ZM17.846 50.1636L3.58332 46.629L3.10222 48.5702L17.3649 52.1049L17.846 50.1636Z" fill="white"/>
</svg>
