<svg width="65" height="96" viewBox="0 0 65 96" fill="none" xmlns="http://www.w3.org/2000/svg">
<path d="M50.2935 1.78076H51.2935V0.780762H50.2935V1.78076ZM50.2935 16.5396V17.5396H51.2935V16.5396H50.2935ZM48.5571 16.5396V15.5396H48.5495L48.5418 15.5397L48.5571 16.5396ZM28.9614 22.8647L28.325 22.0934L28.3219 22.096L28.9614 22.8647ZM20.0938 39.918L19.1029 39.7829L18.6961 42.7662L20.8069 40.619L20.0938 39.918ZM56.9907 41.0342L56.2188 41.6699L56.9907 41.0342ZM60.0913 79.1714L59.2111 78.6968L59.2079 78.7028L60.0913 79.1714ZM49.3013 90.2715L48.8084 89.4013L48.8051 89.4032L49.3013 90.2715ZM10.4819 84.3184L9.73168 84.9795L9.73401 84.9821L10.4819 84.3184ZM7.25732 25.4692L6.36093 25.026L6.35994 25.028L7.25732 25.4692ZM23.1943 8.04395L23.7043 8.90415L23.7058 8.90324L23.1943 8.04395ZM47.3169 1.78076V0.780752L47.3124 0.780771L47.3169 1.78076ZM24.9307 49.2817L25.4647 50.1273L25.4751 50.1205L24.9307 49.2817ZM19.7217 55.2349L18.8098 54.8245L18.7217 55.0202V55.2349H19.7217ZM23.2563 74.7686L22.4352 75.3393L22.4385 75.344L23.2563 74.7686ZM42.48 75.2646L41.6929 74.6478L41.6918 74.6492L42.48 75.2646ZM49.2935 1.78076V16.5396H51.2935V1.78076H49.2935ZM50.2935 15.5396H48.5571V17.5396H50.2935V15.5396ZM48.5418 15.5397C40.2722 15.6662 33.5025 17.822 28.325 22.0934L29.5978 23.6361C34.3422 19.722 40.6363 17.6609 48.5724 17.5394L48.5418 15.5397ZM28.3219 22.096C23.1818 26.3722 20.1236 32.2982 19.1029 39.7829L21.0846 40.0531C22.0483 32.9856 24.9019 27.5428 29.601 23.6335L28.3219 22.096ZM20.8069 40.619C25.4004 35.9463 31.1932 33.6006 38.2632 33.6006V31.6006C30.6984 31.6006 24.3783 34.1331 19.3806 39.2169L20.8069 40.619ZM38.2632 33.6006C45.8459 33.6006 51.7949 36.298 56.2188 41.6699L57.7626 40.3985C52.9261 34.5255 46.3901 31.6006 38.2632 31.6006V33.6006ZM56.2188 41.6699C60.6665 47.0707 62.936 54.2268 62.936 63.2344H64.936C64.936 53.8865 62.5753 46.2424 57.7626 40.3985L56.2188 41.6699ZM62.936 63.2344C62.936 68.9539 61.6889 74.1009 59.2111 78.6968L60.9715 79.6459C63.62 74.7334 64.936 69.2557 64.936 63.2344H62.936ZM59.2079 78.7028C56.7751 83.2891 53.3138 86.8497 48.8085 89.4014L49.7941 91.1416C54.6319 88.4016 58.3639 84.5621 60.9747 79.64L59.2079 78.7028ZM48.8051 89.4032C44.3409 91.9542 39.2647 93.2402 33.5503 93.2402V95.2402C39.5768 95.2402 45.0012 93.8804 49.7974 91.1397L48.8051 89.4032ZM33.5503 93.2402C24.3035 93.2402 16.895 90.0378 11.2299 83.6546L9.73401 84.9821C15.8097 91.828 23.7801 95.2402 33.5503 95.2402V93.2402ZM11.2322 83.6572C5.6016 77.2679 2.73828 68.6976 2.73828 57.8394H0.738281C0.738281 69.0573 3.70406 78.1397 9.73169 84.9795L11.2322 83.6572ZM2.73828 57.8394V51.3901H0.738281V57.8394H2.73828ZM2.73828 51.3901C2.73828 41.7186 4.5537 33.2339 8.15471 25.9105L6.35994 25.028C2.60222 32.6701 0.738281 41.4659 0.738281 51.3901H2.73828ZM8.15371 25.9125C11.7928 18.5535 16.9746 12.8936 23.7043 8.90415L22.6844 7.18374C15.6061 11.3798 10.1633 17.3368 6.36094 25.026L8.15371 25.9125ZM23.7058 8.90324C30.4785 4.87187 38.3398 2.82139 47.3214 2.78075L47.3124 0.780771C38.0212 0.822813 29.8008 2.9478 22.6829 7.18465L23.7058 8.90324ZM47.3169 2.78076H50.2935V0.780762H47.3169V2.78076ZM32.8062 45.9873C29.7252 45.9873 26.9098 46.8048 24.3862 48.443L25.4751 50.1205C27.6644 48.6994 30.0994 47.9873 32.8062 47.9873V45.9873ZM24.3967 48.4362C21.8786 50.0266 20.0086 52.1604 18.8098 54.8245L20.6336 55.6452C21.6672 53.3484 23.2698 51.5134 25.4647 50.1272L24.3967 48.4362ZM18.7217 55.2349V60.6919H20.7217V55.2349H18.7217ZM18.7217 60.6919C18.7217 66.8024 19.9206 71.7217 22.4352 75.3393L24.0775 74.1978C21.8792 71.0354 20.7217 66.5703 20.7217 60.6919H18.7217ZM22.4385 75.344C24.991 78.9712 28.6101 80.7915 33.1782 80.7915V78.7915C29.2301 78.7915 26.2346 77.2632 24.0742 74.1931L22.4385 75.344ZM33.1782 80.7915C37.3294 80.7915 40.7213 79.1419 43.2682 75.8801L41.6918 74.6492C39.5258 77.4232 36.7165 78.7915 33.1782 78.7915V80.7915ZM43.267 75.8815C45.8337 72.6068 47.0767 68.4251 47.0767 63.4204H45.0767C45.0767 68.0895 43.9218 71.804 41.6929 74.6478L43.267 75.8815ZM47.0767 63.4204C47.0767 58.3383 45.8362 54.1308 43.2629 50.8921L41.697 52.1362C43.9193 54.9333 45.0767 58.6634 45.0767 63.4204H47.0767ZM43.2629 50.8921C40.6645 47.6217 37.1445 45.9873 32.8062 45.9873V47.9873C36.5706 47.9873 39.4999 49.3709 41.697 52.1362L43.2629 50.8921Z" fill="white"/>
</svg>
