<svg width="67" height="93" viewBox="0 0 67 93" fill="none" xmlns="http://www.w3.org/2000/svg">
<path d="M65.0679 11.7568L65.9848 12.1558L66.0679 11.965V11.7568H65.0679ZM30.1553 92V93H30.8107L31.0722 92.399L30.1553 92ZM11.2417 92L10.3337 91.5809L9.67879 93H11.2417V92ZM46.2163 16.2217L47.1243 16.6407L47.7792 15.2217H46.2163V16.2217ZM1.31982 16.2217H0.319824V17.2217H1.31982V16.2217ZM1.31982 1.71094V0.710938H0.319824V1.71094H1.31982ZM65.0679 1.71094H66.0679V0.710938H65.0679V1.71094ZM64.1509 11.3579L29.2383 91.601L31.0722 92.399L65.9848 12.1558L64.1509 11.3579ZM30.1553 91H11.2417V93H30.1553V91ZM12.1497 92.4191L47.1243 16.6407L45.3083 15.8026L10.3337 91.5809L12.1497 92.4191ZM46.2163 15.2217H1.31982V17.2217H46.2163V15.2217ZM2.31982 16.2217V1.71094H0.319824V16.2217H2.31982ZM1.31982 2.71094H65.0679V0.710938H1.31982V2.71094ZM64.0679 1.71094V11.7568H66.0679V1.71094H64.0679Z" fill="white"/>
</svg>
