<svg width="64" height="96" viewBox="0 0 64 96" fill="none" xmlns="http://www.w3.org/2000/svg">
<path d="M57.2388 38.3677L58.0786 38.9105L57.2388 38.3677ZM48.1851 46.4912L47.7189 45.6065L45.9628 46.5318L47.7515 47.3923L48.1851 46.4912ZM58.603 55.2349L57.7795 55.8022L57.7825 55.8065L58.603 55.2349ZM54.2622 87.2949L54.9092 88.0574L54.9125 88.0546L54.2622 87.2949ZM9.67578 87.2329L9.0283 87.995L9.67578 87.2329ZM5.27295 55.1729L4.44944 54.6055L5.27295 55.1729ZM15.6289 46.4912L16.0588 47.3941L17.86 46.5364L16.095 45.6065L15.6289 46.4912ZM6.5752 38.3677L5.73065 38.9032L5.73535 38.9105L6.5752 38.3677ZM11.04 8.354L11.7037 9.10209L11.707 9.09909L11.04 8.354ZM52.7739 8.29199L52.1103 9.04009L52.1167 9.04569L52.7739 8.29199ZM22.7603 57.5293L23.4737 58.23L23.4799 58.2237L22.7603 57.5293ZM41.1157 76.3809L40.4021 75.6802L40.3956 75.687L41.1157 76.3809ZM39.8135 19.144L39.0573 19.7985L39.0636 19.8057L39.8135 19.144ZM39.8135 36.2593L39.0511 35.612L39.0441 35.6205L39.8135 36.2593ZM59.5254 26.7095C59.5254 30.9162 58.4765 34.6105 56.3989 37.8248L58.0786 38.9105C60.3832 35.3449 61.5254 31.267 61.5254 26.7095H59.5254ZM56.3989 37.8248C54.3081 41.0597 51.4238 43.6545 47.7189 45.6065L48.6512 47.3759C52.6358 45.2765 55.7873 42.4556 58.0786 38.9105L56.3989 37.8248ZM47.7515 47.3923C51.9892 49.4312 55.3226 52.2357 57.7795 55.8022L59.4265 54.6676C56.7572 50.7927 53.1452 47.768 48.6186 45.5901L47.7515 47.3923ZM57.7825 55.8065C60.2155 59.299 61.4478 63.4348 61.4478 68.2573H63.4478C63.4478 63.0753 62.1169 58.5295 59.4236 54.6633L57.7825 55.8065ZM61.4478 68.2573C61.4478 76.0236 58.8195 82.0772 53.6119 86.5353L54.9125 88.0546C60.6189 83.1695 63.4478 76.5315 63.4478 68.2573H61.4478ZM53.6152 86.5324C48.3888 90.967 41.2223 93.2402 32 93.2402V95.2402C41.5466 95.2402 49.2216 92.8833 54.9092 88.0574L53.6152 86.5324ZM32 93.2402C22.7802 93.2402 15.5923 90.9475 10.3233 86.4708L9.0283 87.995C14.756 92.8614 22.4509 95.2402 32 95.2402V93.2402ZM10.3233 86.4708C5.0739 82.0108 2.42822 75.9777 2.42822 68.2573H0.428223C0.428223 76.4946 3.28092 83.1119 9.0283 87.995L10.3233 86.4708ZM2.42822 68.2573C2.42822 63.435 3.66046 59.2763 6.09646 55.7402L4.44944 54.6055C1.75913 58.5108 0.428223 63.0751 0.428223 68.2573H2.42822ZM6.09646 55.7402C8.5537 52.1732 11.8658 49.3907 16.0588 47.3941L15.199 45.5883C10.7103 47.7258 7.1185 50.7311 4.44944 54.6055L6.09646 55.7402ZM16.095 45.6065C12.3902 43.6545 9.50586 41.0597 7.41504 37.8248L5.73535 38.9105C8.02669 42.4556 11.1782 45.2765 15.1628 47.3759L16.095 45.6065ZM7.4197 37.8321C5.38078 34.6169 4.35059 30.92 4.35059 26.7095H2.35059C2.35059 31.2632 3.47013 35.3385 5.73069 38.9032L7.4197 37.8321ZM4.35059 26.7095C4.35059 19.2671 6.81877 13.4354 11.7037 9.10208L10.3764 7.60593C5.00871 12.3676 2.35059 18.7729 2.35059 26.7095H4.35059ZM11.707 9.09909C16.6031 4.71626 23.3074 2.4707 31.938 2.4707V0.470703C22.9572 0.470703 15.7295 2.81402 10.3731 7.60892L11.707 9.09909ZM31.938 2.4707C40.528 2.4707 47.2135 4.69608 52.1103 9.04007L53.4375 7.54392C48.0818 2.79285 40.8766 0.470703 31.938 0.470703V2.4707ZM52.1167 9.04569C57.0361 13.3354 59.5254 19.1833 59.5254 26.7095H61.5254C61.5254 18.6914 58.847 12.2609 53.4311 7.5383L52.1167 9.04569ZM45.4644 66.9551C45.4644 62.8236 44.2618 59.4139 41.7733 56.8349L40.3341 58.2237C42.3931 60.3576 43.4644 63.2317 43.4644 66.9551H45.4644ZM41.7733 56.8349C39.2783 54.2492 35.9409 52.9946 31.876 52.9946V54.9946C35.5005 54.9946 38.2816 56.0965 40.3341 58.2237L41.7733 56.8349ZM31.876 52.9946C27.8488 52.9946 24.5336 54.2513 22.0406 56.8349L23.4799 58.2237C25.5345 56.0944 28.2963 54.9946 31.876 54.9946V52.9946ZM22.0468 56.8286C19.5501 59.3707 18.3496 62.7863 18.3496 66.9551H20.3496C20.3496 63.1864 21.4229 60.3181 23.4737 58.23L22.0468 56.8286ZM18.3496 66.9551C18.3496 71.0054 19.5321 74.3688 21.9723 76.9446L23.4242 75.5691C21.3995 73.432 20.3496 70.5942 20.3496 66.9551H18.3496ZM21.9723 76.9446C24.4344 79.5435 27.8223 80.7915 32 80.7915V78.7915C28.2402 78.7915 25.4269 77.6831 23.4242 75.5691L21.9723 76.9446ZM32 80.7915C36.0908 80.7915 39.4144 79.5876 41.8358 77.0748L40.3956 75.687C38.4349 77.7217 35.6813 78.7915 32 78.7915V80.7915ZM41.8293 77.0815C44.2898 74.5754 45.4644 71.156 45.4644 66.9551H43.4644C43.4644 70.7743 42.4065 73.6388 40.4022 75.6803L41.8293 77.0815ZM43.604 27.5776C43.604 23.8831 42.6222 20.8159 40.5633 18.4824L39.0636 19.8057C40.7254 21.689 41.604 24.2442 41.604 27.5776H43.604ZM40.5696 18.4897C38.4826 16.0779 35.5569 14.9194 31.938 14.9194V16.9194C35.099 16.9194 37.4237 17.9107 39.0573 19.7984L40.5696 18.4897ZM31.938 14.9194C28.3688 14.9194 25.4696 16.0306 23.3812 18.3511L24.8678 19.689C26.5001 17.8753 28.8099 16.9194 31.938 16.9194V14.9194ZM23.3812 18.3511C21.31 20.6524 20.334 23.7705 20.334 27.5776H22.334C22.334 24.1087 23.2183 21.5217 24.8678 19.689L23.3812 18.3511ZM20.334 27.5776C20.334 31.35 21.3128 34.4928 23.3622 36.9065L24.8868 35.612C23.2155 33.6436 22.334 30.9986 22.334 27.5776H20.334ZM23.3622 36.9065C25.4473 39.3622 28.3747 40.5459 32 40.5459V38.5459C28.8454 38.5459 26.5224 37.5385 24.8868 35.612L23.3622 36.9065ZM32 40.5459C35.6247 40.5459 38.5372 39.3622 40.5829 36.898L39.0441 35.6205C37.4517 37.5385 35.1552 38.5459 32 38.5459V40.5459ZM40.5758 36.9065C42.6251 34.4928 43.604 31.35 43.604 27.5776H41.604C41.604 30.9986 40.7225 33.6436 39.0512 35.612L40.5758 36.9065Z" fill="white"/>
</svg>
