<svg width="64" height="95" viewBox="0 0 64 95" fill="none" xmlns="http://www.w3.org/2000/svg">
<path d="M44.5962 56.9092L45.592 57.0008L45.8419 54.2837L43.8954 56.1958L44.5962 56.9092ZM9.06348 55.6069L8.30984 56.2642L8.31231 56.2671L9.06348 55.6069ZM5.71484 17.1597L4.82944 16.6948L4.82799 16.6976L5.71484 17.1597ZM16.5669 5.62549L17.0746 6.48705L17.0803 6.48366L16.5669 5.62549ZM58.8589 18.772L59.7676 18.3546L58.8589 18.772ZM62.7656 37.9336H63.7656L63.7656 37.9278L62.7656 37.9336ZM19.7295 93.8062L19.7436 94.8061L19.7576 94.8059L19.7716 94.8053L19.7295 93.8062ZM15.3267 93.8682H14.3267V94.8823L15.3407 94.8681L15.3267 93.8682ZM15.3267 78.9233L15.311 77.9235L14.3267 77.9388V78.9233H15.3267ZM19.2954 78.8613L19.311 79.8612L19.3258 79.861L19.3405 79.8603L19.2954 78.8613ZM40.0693 47.8555L39.4926 47.0385L39.485 47.0439L40.0693 47.8555ZM44.8442 42.4604L45.7351 42.9146L45.8442 42.7006V42.4604H44.8442ZM23.2021 20.8804L24.018 21.4587L24.0214 21.4538L23.2021 20.8804ZM23.0781 45.375L22.2594 45.9492L22.2637 45.9553L22.268 45.9613L23.0781 45.375ZM43.8954 56.1958C39.4007 60.611 34.1916 62.7925 28.2251 62.7925V64.7925C34.7437 64.7925 40.4486 62.3851 45.297 57.6226L43.8954 56.1958ZM28.2251 62.7925C20.5021 62.7925 14.4004 60.1651 9.81464 54.9468L8.31231 56.2671C13.3177 61.9629 19.9904 64.7925 28.2251 64.7925V62.7925ZM9.81711 54.9496C5.22018 49.679 2.87012 42.5352 2.87012 33.4067H0.870117C0.870117 42.8818 3.31563 50.5381 8.30985 56.2642L9.81711 54.9496ZM2.87012 33.4067C2.87012 27.645 4.11774 22.3893 6.60169 17.6217L4.82799 16.6976C2.18565 21.7692 0.870117 27.3449 0.870117 33.4067H2.87012ZM6.60024 17.6245C9.12207 12.821 12.6118 9.11691 17.0746 6.48703L16.0592 4.76395C11.2616 7.5911 7.5166 11.5764 4.82945 16.6948L6.60024 17.6245ZM17.0803 6.48366C21.544 3.81338 26.5732 2.4707 32.1938 2.4707V0.470703C26.2389 0.470703 20.8502 1.89789 16.0535 4.76732L17.0803 6.48366ZM32.1938 2.4707C37.9715 2.4707 43.0724 3.91233 47.5281 6.77673L48.6096 5.09437C43.8049 2.00564 38.3224 0.470703 32.1938 0.470703V2.4707ZM47.5281 6.77673C51.9795 9.63835 55.4571 13.761 57.9501 19.1893L59.7676 18.3546C57.1343 12.6208 53.4186 8.18587 48.6096 5.09437L47.5281 6.77673ZM57.9501 19.1893C60.4447 24.621 61.725 30.864 61.7656 37.9393L63.7656 37.9278C63.7236 30.6165 62.3994 24.0851 59.7676 18.3546L57.9501 19.1893ZM61.7656 37.9336V44.5688H63.7656V37.9336H61.7656ZM61.7656 44.5688C61.7656 59.4542 58.0666 71.0177 50.7871 79.3831L52.2959 80.696C59.9819 71.8635 63.7656 59.7798 63.7656 44.5688H61.7656ZM50.7871 79.3831C43.521 87.7331 33.1989 92.2373 19.6874 92.807L19.7716 94.8053C33.7106 94.2175 44.5965 89.5439 52.2959 80.696L50.7871 79.3831ZM19.7154 92.8063L15.3126 92.8683L15.3407 94.8681L19.7436 94.8061L19.7154 92.8063ZM16.3267 93.8682V78.9233H14.3267V93.8682H16.3267ZM15.3423 79.9232L19.311 79.8612L19.2798 77.8615L15.311 77.9235L15.3423 79.9232ZM19.3405 79.8603C27.2704 79.5027 33.5219 77.4567 37.9652 73.6015C42.423 69.7337 44.9338 64.1555 45.592 57.0008L43.6004 56.8176C42.977 63.5948 40.6302 68.6413 36.6545 72.0909C32.6641 75.5531 26.906 77.5171 19.2504 77.8623L19.3405 79.8603ZM32.6279 51.0879C35.7018 51.0879 38.3938 50.2941 40.6536 48.667L39.485 47.0439C37.6108 48.3934 35.3418 49.0879 32.6279 49.0879V51.0879ZM40.646 48.6724C42.8748 47.0992 44.58 45.1805 45.7351 42.9146L43.9533 42.0063C42.9587 43.9572 41.4807 45.6352 39.4927 47.0385L40.646 48.6724ZM45.8442 42.4604V35.0811H43.8442V42.4604H45.8442ZM45.8442 35.0811C45.8442 28.8952 44.6689 23.9532 42.1941 20.3737L40.549 21.5111C42.7045 24.6288 43.8442 29.1126 43.8442 35.0811H45.8442ZM42.1941 20.3737C39.7029 16.7702 36.3024 14.9194 32.0698 14.9194V16.9194C35.6094 16.9194 38.4101 18.4173 40.549 21.5111L42.1941 20.3737ZM32.0698 14.9194C28.103 14.9194 24.8585 16.7703 22.3829 20.3069L24.0214 21.4538C26.176 18.3758 28.8433 16.9194 32.0698 16.9194V14.9194ZM22.3863 20.3021C19.9254 23.7738 18.7295 28.1027 18.7295 33.2207H20.7295C20.7295 28.4168 21.8487 24.5188 24.018 21.4587L22.3863 20.3021ZM18.7295 33.2207C18.7295 38.2911 19.8811 42.5579 22.2594 45.9492L23.8969 44.8008C21.8103 41.8256 20.7295 37.9895 20.7295 33.2207H18.7295ZM22.268 45.9613C24.7417 49.3795 28.2352 51.0879 32.6279 51.0879V49.0879C28.8351 49.0879 25.9621 47.6544 23.8882 44.7887L22.268 45.9613Z" fill="white"/>
</svg>
