<svg width="28" height="21" viewBox="0 0 28 21" fill="none" xmlns="http://www.w3.org/2000/svg">
<path d="M9.10547 19V20H10.1055V19H9.10547ZM5.71875 19H4.71875V20H5.71875V19ZM5.71875 5.94531H6.71875V4.58818L5.42252 4.99019L5.71875 5.94531ZM1.67578 7.19922H0.675781V8.55635L1.97201 8.15434L1.67578 7.19922ZM1.67578 4.44531L1.33855 3.50389L0.675781 3.7413V4.44531H1.67578ZM8.74219 1.91406V0.914062H8.56849L8.40496 0.972639L8.74219 1.91406ZM9.10547 1.91406H10.1055V0.914062H9.10547V1.91406ZM9.10547 18H5.71875V20H9.10547V18ZM6.71875 19V5.94531H4.71875V19H6.71875ZM5.42252 4.99019L1.37956 6.2441L1.97201 8.15434L6.01497 6.90043L5.42252 4.99019ZM2.67578 7.19922V4.44531H0.675781V7.19922H2.67578ZM2.01301 5.38674L9.07941 2.85549L8.40496 0.972639L1.33855 3.50389L2.01301 5.38674ZM8.74219 2.91406H9.10547V0.914062H8.74219V2.91406ZM8.10547 1.91406V19H10.1055V1.91406H8.10547ZM14.6133 12.1211H13.6132L13.6133 12.1313L14.6133 12.1211ZM16.0898 3.55469L15.3104 2.92818L15.308 2.9312L16.0898 3.55469ZM24.6328 3.54297L23.8529 4.16888L23.8549 4.17131L24.6328 3.54297ZM26.1445 8.80469H27.1446L27.1445 8.79445L26.1445 8.80469ZM22.1719 5.41797L21.3107 5.92635L21.3144 5.93249L21.3181 5.93858L22.1719 5.41797ZM18.5977 5.37109L17.7478 4.844L17.746 4.847L18.5977 5.37109ZM18 8.24219L17.0002 8.22423L17 8.23321V8.24219H18ZM18.5625 15.4961L17.6868 15.9792L17.6936 15.9911L18.5625 15.4961ZM22.7578 12.5547L23.7578 12.5664V12.5547H22.7578ZM25.1445 11.9453C25.1445 14.1858 24.6781 15.737 23.8917 16.7437L25.4677 17.975C26.6344 16.4817 27.1445 14.4236 27.1445 11.9453H25.1445ZM23.8917 16.7437C23.141 17.7045 22.03 18.2344 20.3906 18.2344V20.2344C22.5168 20.2344 24.2652 19.5142 25.4677 17.975L23.8917 16.7437ZM20.3906 18.2344C18.7728 18.2344 17.664 17.7145 16.9049 16.7686L15.3451 18.0204C16.5548 19.5277 18.2897 20.2344 20.3906 20.2344V18.2344ZM16.9049 16.7686C16.1121 15.7808 15.6354 14.2746 15.6132 12.1109L13.6133 12.1313C13.6381 14.5458 14.1692 16.5552 15.3451 18.0204L16.9049 16.7686ZM15.6133 12.1211V8.98047H13.6133V12.1211H15.6133ZM15.6133 8.98047C15.6133 6.714 16.0846 5.16513 16.8717 4.17817L15.308 2.9312C14.1263 4.413 13.6133 6.48132 13.6133 8.98047H15.6133ZM16.8693 4.18119C17.6376 3.22537 18.7518 2.70312 20.3672 2.70312V0.703125C18.2638 0.703125 16.5265 1.41526 15.3104 2.92819L16.8693 4.18119ZM20.3672 2.70312C21.985 2.70312 23.0938 3.22305 23.8529 4.16887L25.4127 2.91706C24.203 1.40976 22.4681 0.703125 20.3672 0.703125V2.70312ZM23.8549 4.17131C24.6455 5.15018 25.1224 6.65066 25.1446 8.81493L27.1445 8.79445C27.1198 6.38059 26.5889 4.37325 25.4108 2.91463L23.8549 4.17131ZM25.1445 8.80469V11.9453H27.1445V8.80469H25.1445ZM23.7578 8.5C23.7578 7.03929 23.5643 5.78073 23.0257 4.89736L21.3181 5.93858C21.5607 6.33646 21.7578 7.13259 21.7578 8.5H23.7578ZM23.033 4.90959C22.4517 3.92489 21.503 3.44531 20.3672 3.44531V5.44531C20.872 5.44531 21.1264 5.61417 21.3107 5.92635L23.033 4.90959ZM20.3672 3.44531C19.2646 3.44531 18.3333 3.90011 17.7479 4.844L19.4475 5.89819C19.6276 5.6077 19.8761 5.44531 20.3672 5.44531V3.44531ZM17.746 4.847C17.228 5.68874 17.0246 6.86647 17.0002 8.22423L18.9998 8.26015C19.0223 7.00853 19.2173 6.2722 19.4493 5.89519L17.746 4.847ZM17 8.24219V12.3906H19V8.24219H17ZM17 12.3906C17 13.8357 17.1887 15.0762 17.6869 15.9792L19.4381 15.013C19.1863 14.5566 19 13.7268 19 12.3906H17ZM17.6936 15.9911C18.2713 17.0049 19.2309 17.5039 20.3906 17.5039V15.5039C19.8784 15.5039 19.6194 15.331 19.4314 15.001L17.6936 15.9911ZM20.3906 17.5039C21.5303 17.5039 22.4863 17.0261 23.0538 16.024L21.3134 15.0385C21.1465 15.3333 20.9072 15.5039 20.3906 15.5039V17.5039ZM23.0538 16.024C23.5465 15.1538 23.7415 13.9566 23.7577 12.5664L21.7579 12.543C21.7429 13.8247 21.5551 14.6118 21.3134 15.0385L23.0538 16.024ZM23.7578 12.5547V8.5H21.7578V12.5547H23.7578Z" fill="#1489DE"/>
</svg>
