<svg width="15" height="20" viewBox="0 0 10 20" fill="none" xmlns="http://www.w3.org/2000/svg">
<path d="M8.99609 19V20H9.99609V19H8.99609ZM5.60938 19H4.60938V20H5.60938V19ZM5.60938 5.94531H6.60938V4.58818L5.31315 4.99019L5.60938 5.94531ZM1.56641 7.19922H0.566406V8.55635L1.86263 8.15434L1.56641 7.19922ZM1.56641 4.44531L1.22918 3.50389L0.566406 3.7413V4.44531H1.56641ZM8.63281 1.91406V0.914062H8.45911L8.29559 0.972639L8.63281 1.91406ZM8.99609 1.91406H9.99609V0.914062H8.99609V1.91406ZM8.99609 18H5.60938V20H8.99609V18ZM6.60938 19V5.94531H4.60938V19H6.60938ZM5.31315 4.99019L1.27018 6.2441L1.86263 8.15434L5.9056 6.90043L5.31315 4.99019ZM2.56641 7.19922V4.44531H0.566406V7.19922H2.56641ZM1.90363 5.38674L8.97004 2.85549L8.29559 0.972639L1.22918 3.50389L1.90363 5.38674ZM8.63281 2.91406H8.99609V0.914062H8.63281V2.91406ZM7.99609 1.91406V19H9.99609V1.91406H7.99609Z" fill="#1489DE"/>
</svg>
