<svg width="15" height="20" viewBox="0 0 15 20" fill="none" xmlns="http://www.w3.org/2000/svg">
<path d="M13.4648 19V20H14.4648V19H13.4648ZM1.76953 19H0.769531V20H1.76953V19ZM1.76953 16.6797L1.04027 15.9955L0.769531 16.284V16.6797H1.76953ZM7.28906 10.7969L8.01838 11.4812L8.02679 11.472L7.28906 10.7969ZM8.96484 8.62891L8.1054 8.11759L8.10067 8.12572L8.96484 8.62891ZM8.94141 5.08984L8.1888 5.74837L8.19475 5.75505L8.94141 5.08984ZM5.48438 5.23047L4.718 4.58807L4.71709 4.58916L5.48438 5.23047ZM4.82812 7.30469V8.30469H5.82812V7.30469H4.82812ZM1.42969 7.30469H0.429688V8.30469H1.42969V7.30469ZM2.16797 4.45703L1.3036 3.95413L1.30021 3.96004L2.16797 4.45703ZM4.27734 2.44141L4.74873 3.32336L4.7546 3.32017L4.27734 2.44141ZM11.4492 2.96875L10.7924 3.72284L10.7954 3.72544L11.4492 2.96875ZM10.0078 12.1797L10.7334 12.8678L10.74 12.8609L10.7464 12.8538L10.0078 12.1797ZM6.12891 16.2695L5.40334 15.5814L3.80226 17.2695H6.12891V16.2695ZM13.4648 16.2695H14.4648V15.2695H13.4648V16.2695ZM13.4648 18H1.76953V20H13.4648V18ZM2.76953 19V16.6797H0.769531V19H2.76953ZM2.4988 17.3639L8.01833 11.4811L6.5598 10.1126L1.04027 15.9955L2.4988 17.3639ZM8.02679 11.472C8.80877 10.6174 9.41944 9.8355 9.82902 9.1321L8.10067 8.12572C7.79149 8.65669 7.28498 9.32006 6.55133 10.1218L8.02679 11.472ZM9.82425 9.1402C10.2569 8.41297 10.5156 7.65143 10.5156 6.87109H8.51562C8.51562 7.20013 8.40716 7.61047 8.10544 8.11761L9.82425 9.1402ZM10.5156 6.87109C10.5156 5.94726 10.28 5.0891 9.68807 4.42464L8.19475 5.75505C8.36839 5.94996 8.51562 6.27931 8.51562 6.87109H10.5156ZM9.69398 4.43134C9.07965 3.72924 8.23018 3.43359 7.30078 3.43359V5.43359C7.79326 5.43359 8.03754 5.57545 8.18883 5.74835L9.69398 4.43134ZM7.30078 3.43359C6.27431 3.43359 5.37467 3.80468 4.718 4.58807L6.25075 5.87287C6.48471 5.59375 6.79601 5.43359 7.30078 5.43359V3.43359ZM4.71709 4.58916C4.09352 5.33522 3.82812 6.27337 3.82812 7.30469H5.82812C5.82812 6.61725 6.00023 6.17259 6.25166 5.87178L4.71709 4.58916ZM4.82812 6.30469H1.42969V8.30469H4.82812V6.30469ZM2.42969 7.30469C2.42969 6.43106 2.63452 5.65454 3.03573 4.95402L1.30021 3.96004C0.717042 4.97828 0.429688 6.10019 0.429688 7.30469H2.42969ZM3.03232 4.95992C3.43579 4.26646 4.00032 3.72335 4.74872 3.32334L3.80597 1.55947C2.74187 2.12822 1.90015 2.92885 1.30362 3.95414L3.03232 4.95992ZM4.7546 3.32017C5.4983 2.91627 6.35836 2.70312 7.35938 2.70312V0.703125C6.06352 0.703125 4.86889 0.982172 3.80009 1.56264L4.7546 3.32017ZM7.35938 2.70312C8.96494 2.70312 10.0633 3.08778 10.7924 3.72283L12.106 2.21467C10.8976 1.16222 9.26943 0.703125 7.35938 0.703125V2.70312ZM10.7954 3.72544C11.5096 4.34244 11.9141 5.233 11.9141 6.54297H13.9141C13.9141 4.77481 13.342 3.28256 12.103 2.21206L10.7954 3.72544ZM11.9141 6.54297C11.9141 7.20848 11.7425 7.91559 11.3634 8.67388L13.1522 9.56831C13.6481 8.5766 13.9141 7.56496 13.9141 6.54297H11.9141ZM11.3634 8.67388C10.9844 9.43185 10.3025 10.3735 9.26922 11.5055L10.7464 12.8538C11.8381 11.6578 12.6562 10.5603 13.1522 9.56831L11.3634 8.67388ZM9.28224 11.4915L5.40334 15.5814L6.85448 16.9577L10.7334 12.8678L9.28224 11.4915ZM6.12891 17.2695H13.4648V15.2695H6.12891V17.2695ZM12.4648 16.2695V19H14.4648V16.2695H12.4648Z" fill="#1489DE"/>
</svg>
