<svg width="15" height="21" viewBox="0 0 15 21" fill="none" xmlns="http://www.w3.org/2000/svg">
<path d="M5.21484 8.96875V7.96875H4.21484V8.96875H5.21484ZM8.92969 5.00781L8.24386 5.73563L8.25083 5.74208L8.92969 5.00781ZM5.61328 4.97266L6.23971 5.75221L6.24802 5.74538L5.61328 4.97266ZM4.95703 6.35547V7.35547H5.95703V6.35547H4.95703ZM1.57031 6.35547H0.570312V7.35547H1.57031V6.35547ZM2.28516 3.96484L1.45873 3.40179L1.45738 3.40379L2.28516 3.96484ZM4.30078 2.30078L3.88328 1.3921L3.88015 1.39355L4.30078 2.30078ZM11.4023 3.00391L10.7559 3.76686L10.7593 3.76973L11.4023 3.00391ZM10.3477 10.2344L9.93385 9.32401L7.6878 10.3449L10.0108 11.1759L10.3477 10.2344ZM12.4922 11.7812L11.6659 12.3446L11.6703 12.3509L12.4922 11.7812ZM11.543 17.8633L10.9071 17.0915L10.9044 17.0937L11.543 17.8633ZM2.97656 17.8867L2.33637 18.6549L2.33911 18.6572L2.97656 17.8867ZM1.35938 14.3242V13.3242H0.359375V14.3242H1.35938ZM4.74609 14.3242H5.74609V13.3242H4.74609V14.3242ZM5.46094 15.8945L4.81218 16.6556L4.81833 16.6607L5.46094 15.8945ZM9.12891 15.8711L9.81032 16.603L9.81078 16.6026L9.12891 15.8711ZM5.21484 11.6172H4.21484V12.6172H5.21484V11.6172ZM5.21484 9.96875H7.01953V7.96875H5.21484V9.96875ZM7.01953 9.96875C8.0298 9.96875 8.97727 9.71598 9.64977 9.01811L8.20961 7.63033C8.05398 7.79183 7.72801 7.96875 7.01953 7.96875V9.96875ZM9.64977 9.01811C10.277 8.3672 10.5508 7.53019 10.5508 6.61328H8.55078C8.55078 7.11825 8.41049 7.42186 8.20961 7.63033L9.64977 9.01811ZM10.5508 6.61328C10.5508 5.71286 10.2712 4.88616 9.60854 4.27354L8.25083 5.74208C8.41632 5.89509 8.55078 6.13871 8.55078 6.61328H10.5508ZM9.61549 4.28002C8.97493 3.67642 8.13988 3.43359 7.24219 3.43359V5.43359C7.78199 5.43359 8.07195 5.57358 8.24389 5.7356L9.61549 4.28002ZM7.24219 3.43359C6.39774 3.43359 5.62057 3.67255 4.97854 4.19993L6.24802 5.74538C6.481 5.55401 6.78976 5.43359 7.24219 5.43359V3.43359ZM4.98689 4.19315C4.30878 4.73806 3.95703 5.48783 3.95703 6.35547H5.95703C5.95703 6.08248 6.04279 5.91038 6.23967 5.75216L4.98689 4.19315ZM4.95703 5.35547H1.57031V7.35547H4.95703V5.35547ZM2.57031 6.35547C2.57031 5.65462 2.75423 5.05514 3.11294 4.5259L1.45738 3.40379C0.862962 4.2808 0.570312 5.27507 0.570312 6.35547H2.57031ZM3.11158 4.5279C3.48416 3.98105 4.00883 3.53839 4.72141 3.20802L3.88015 1.39355C2.87398 1.86005 2.05491 2.52677 1.45874 3.40179L3.11158 4.5279ZM4.71828 3.20946C5.44322 2.87638 6.25226 2.70312 7.16016 2.70312V0.703125C5.98993 0.703125 4.89271 0.928311 3.88328 1.3921L4.71828 3.20946ZM7.16016 2.70312C8.81029 2.70312 9.96719 3.09857 10.7559 3.76685L12.0488 2.24096C10.7906 1.17486 9.1194 0.703125 7.16016 0.703125V2.70312ZM10.7593 3.76973C11.5245 4.41227 11.9375 5.30183 11.9375 6.56641H13.9375C13.9375 4.79973 13.3271 3.31429 12.0454 2.23809L10.7593 3.76973ZM11.9375 6.56641C11.9375 7.12812 11.7711 7.64266 11.4135 8.13506L13.0318 9.31026C13.6274 8.49015 13.9375 7.56719 13.9375 6.56641H11.9375ZM11.4135 8.13506C11.0435 8.64458 10.5576 9.04049 9.93385 9.32401L10.7615 11.1447C11.6846 10.7251 12.4487 10.1132 13.0318 9.31026L11.4135 8.13506ZM10.0108 11.1759C10.8186 11.4649 11.3411 11.8681 11.666 12.3446L13.3184 11.2179C12.7058 10.3194 11.7986 9.69134 10.6845 9.29281L10.0108 11.1759ZM11.6703 12.3509C12.0171 12.8513 12.207 13.4593 12.207 14.2188H14.207C14.207 13.1032 13.9204 12.0862 13.314 11.2116L11.6703 12.3509ZM12.207 14.2188C12.207 15.4543 11.7719 16.379 10.9071 17.0915L12.1789 18.6351C13.5328 17.5195 14.207 16.0144 14.207 14.2188H12.207ZM10.9044 17.0937C10.0265 17.8222 8.81203 18.2344 7.16016 18.2344V20.2344C9.14891 20.2344 10.8563 19.7325 12.1815 18.6328L10.9044 17.0937ZM7.16016 18.2344C5.63936 18.2344 4.48532 17.8371 3.61402 17.1162L2.33911 18.6572C3.63968 19.7332 5.2747 20.2344 7.16016 20.2344V18.2344ZM3.61675 17.1185C2.7799 16.4211 2.35938 15.5217 2.35938 14.3242H0.359375C0.359375 16.0798 1.01697 17.5554 2.33638 18.6549L3.61675 17.1185ZM1.35938 15.3242H4.74609V13.3242H1.35938V15.3242ZM3.74609 14.3242C3.74609 15.25 4.10693 16.0543 4.8122 16.6555L6.10967 15.1335C5.86182 14.9222 5.74609 14.6797 5.74609 14.3242H3.74609ZM4.81833 16.6607C5.50322 17.2352 6.33219 17.5039 7.24219 17.5039V15.5039C6.74594 15.5039 6.3874 15.3664 6.10355 15.1283L4.81833 16.6607ZM7.24219 17.5039C8.22158 17.5039 9.12192 17.2439 9.81032 16.603L8.44749 15.1392C8.22964 15.342 7.87217 15.5039 7.24219 15.5039V17.5039ZM9.81078 16.6026C10.4992 15.9608 10.8203 15.1168 10.8203 14.1719H8.82031C8.82031 14.6332 8.68045 14.922 8.44703 15.1396L9.81078 16.6026ZM10.8203 14.1719C10.8203 13.1401 10.5319 12.1899 9.78955 11.5156C9.06544 10.8579 8.07695 10.6172 7.00781 10.6172V12.6172C7.81368 12.6172 8.23143 12.8022 8.44482 12.9961C8.63997 13.1733 8.82031 13.5006 8.82031 14.1719H10.8203ZM7.00781 10.6172H5.21484V12.6172H7.00781V10.6172ZM6.21484 11.6172V8.96875H4.21484V11.6172H6.21484Z" fill="#1489DE"/>
</svg>
