<svg width="15" height="20" viewBox="0 0 15 20" fill="none" xmlns="http://www.w3.org/2000/svg">
<path d="M11.7891 12.5781H10.7891V13.5781H11.7891V12.5781ZM13.7227 12.5781H14.7227V11.5781H13.7227V12.5781ZM13.7227 15.3086V16.3086H14.7227V15.3086H13.7227ZM11.7891 15.3086V14.3086H10.7891V15.3086H11.7891ZM11.7891 19V20H12.7891V19H11.7891ZM8.40234 19H7.40234V20H8.40234V19ZM8.40234 15.3086H9.40234V14.3086H8.40234V15.3086ZM1.40625 15.3086L0.408791 15.3798L0.475131 16.3086H1.40625V15.3086ZM1.25391 13.1758L0.408941 12.641L0.233011 12.9189L0.256447 13.247L1.25391 13.1758ZM8.36719 1.9375V0.9375H7.81666L7.52222 1.40268L8.36719 1.9375ZM11.7891 1.9375H12.7891V0.9375H11.7891V1.9375ZM4.62891 12.5781L3.78279 12.0451L2.8171 13.5781H4.62891V12.5781ZM8.40234 12.5781V13.5781H9.40234V12.5781H8.40234ZM8.40234 6.55469H9.40234V2.81369L7.53572 6.05572L8.40234 6.55469ZM8.17969 6.94141L9.0258 7.47441L9.03639 7.45759L9.04631 7.44037L8.17969 6.94141ZM11.7891 13.5781H13.7227V11.5781H11.7891V13.5781ZM12.7227 12.5781V15.3086H14.7227V12.5781H12.7227ZM13.7227 14.3086H11.7891V16.3086H13.7227V14.3086ZM10.7891 15.3086V19H12.7891V15.3086H10.7891ZM11.7891 18H8.40234V20H11.7891V18ZM9.40234 19V15.3086H7.40234V19H9.40234ZM8.40234 14.3086H1.40625V16.3086H8.40234V14.3086ZM2.40371 15.2373L2.25137 13.1045L0.256447 13.247L0.408791 15.3798L2.40371 15.2373ZM2.09887 13.7106L9.21215 2.47232L7.52222 1.40268L0.408941 12.641L2.09887 13.7106ZM8.36719 2.9375H11.7891V0.9375H8.36719V2.9375ZM10.7891 1.9375V12.5781H12.7891V1.9375H10.7891ZM4.62891 13.5781H8.40234V11.5781H4.62891V13.5781ZM9.40234 12.5781V6.55469H7.40234V12.5781H9.40234ZM7.53572 6.05572L7.31306 6.44244L9.04631 7.44037L9.26897 7.05365L7.53572 6.05572ZM7.33357 6.40841L3.78279 12.0451L5.47502 13.1111L9.0258 7.47441L7.33357 6.40841Z" fill="#1489DE"/>
</svg>
