<svg width="15" height="21" viewBox="0 0 15 21" fill="none" xmlns="http://www.w3.org/2000/svg">
<path d="M2.27344 10.6094L1.27982 10.4966L1.18081 11.3688L2.03289 11.58L2.27344 10.6094ZM3.25781 1.9375V0.9375H2.3649L2.26419 1.82471L3.25781 1.9375ZM12.8203 1.9375H13.8203V0.9375H12.8203V1.9375ZM12.8203 4.76172V5.76172H13.8203V4.76172H12.8203ZM6.03516 4.76172V3.76172H5.14358L5.04171 4.64746L6.03516 4.76172ZM5.61328 8.42969L4.61983 8.31542L4.4019 10.2102L6.08431 9.3118L5.61328 8.42969ZM12.6797 16.4922L11.7982 16.02L11.7967 16.0228L12.6797 16.4922ZM10.6875 18.5195L11.1691 19.3959L11.1751 19.3926L10.6875 18.5195ZM4.74609 18.6133L4.31491 19.5156L4.32146 19.5186L4.74609 18.6133ZM2.64844 16.8438L1.81769 17.4004L1.82167 17.4063L2.64844 16.8438ZM1.83984 14.2539V13.2539H0.807065L0.840364 14.2861L1.83984 14.2539ZM5.19141 14.2539L6.18655 14.1555L6.09738 13.2539H5.19141V14.2539ZM5.92969 15.918L5.24306 16.645L5.24998 16.6515L5.25701 16.6579L5.92969 15.918ZM9.375 15.6836L10.1723 16.2872L10.1764 16.2818L9.375 15.6836ZM5.29688 10.9727L4.652 10.2084L4.63384 10.2237L4.61642 10.2399L5.29688 10.9727ZM4.96875 11.2773L4.7282 12.248L5.253 12.378L5.6492 12.0101L4.96875 11.2773ZM3.26706 10.7222L4.25143 2.05029L2.26419 1.82471L1.27982 10.4966L3.26706 10.7222ZM3.25781 2.9375H12.8203V0.9375H3.25781V2.9375ZM11.8203 1.9375V4.76172H13.8203V1.9375H11.8203ZM12.8203 3.76172H6.03516V5.76172H12.8203V3.76172ZM5.04171 4.64746L4.61983 8.31542L6.60673 8.54395L7.02861 4.87598L5.04171 4.64746ZM6.08431 9.3118C6.74506 8.95898 7.43888 8.78516 8.17969 8.78516V6.78516C7.108 6.78516 6.09088 7.04102 5.14225 7.54757L6.08431 9.3118ZM8.17969 8.78516C9.582 8.78516 10.5656 9.21034 11.2621 9.97182L12.7379 8.62193C11.5907 7.36779 10.0274 6.78516 8.17969 6.78516V8.78516ZM11.2621 9.97182C11.9665 10.7418 12.3828 11.8812 12.3828 13.5273H14.3828C14.3828 11.5484 13.8773 9.86756 12.7379 8.62193L11.2621 9.97182ZM12.3828 13.5273C12.3828 14.4825 12.1809 15.3056 11.7982 16.02L13.5612 16.9644C14.116 15.9288 14.3828 14.7753 14.3828 13.5273H12.3828ZM11.7967 16.0228C11.4271 16.7182 10.9012 17.2547 10.1999 17.6465L11.1751 19.3926C12.2082 18.8156 13.0104 18.0005 13.5627 16.9615L11.7967 16.0228ZM10.2059 17.6431C9.51222 18.0244 8.66082 18.2344 7.61719 18.2344V20.2344C8.93293 20.2344 10.1284 19.9678 11.1691 19.3959L10.2059 17.6431ZM7.61719 18.2344C6.72407 18.2344 5.91305 18.0561 5.17073 17.7079L4.32146 19.5186C5.34476 19.9986 6.4478 20.2344 7.61719 20.2344V18.2344ZM5.17727 17.711C4.44288 17.3601 3.8846 16.8829 3.47521 16.2812L1.82167 17.4063C2.44353 18.3202 3.28368 19.0227 4.31492 19.5156L5.17727 17.711ZM3.47917 16.2871C3.0822 15.6947 2.86493 15.0155 2.83932 14.2217L0.840364 14.2861C0.877257 15.4298 1.19905 16.4772 1.81771 17.4004L3.47917 16.2871ZM1.83984 15.2539H5.19141V13.2539H1.83984V15.2539ZM4.19626 14.3523C4.2846 15.2455 4.60799 16.0452 5.24306 16.645L6.61631 15.191C6.40764 14.9939 6.23884 14.6842 6.18655 14.1555L4.19626 14.3523ZM5.25701 16.6579C5.90374 17.2458 6.71767 17.5039 7.60547 17.5039V15.5039C7.11826 15.5039 6.81501 15.3713 6.60236 15.178L5.25701 16.6579ZM7.60547 17.5039C8.64251 17.5039 9.54532 17.1153 10.1723 16.2872L8.57774 15.08C8.37656 15.3457 8.09967 15.5039 7.60547 15.5039V17.5039ZM10.1764 16.2818C10.7663 15.4915 10.9961 14.4688 10.9961 13.3398H8.99609C8.99609 14.2265 8.81182 14.7663 8.57365 15.0854L10.1764 16.2818ZM10.9961 13.3398C10.9961 12.2158 10.7187 11.1952 10.0156 10.4345L8.54687 11.792C8.79692 12.0626 8.99609 12.5264 8.99609 13.3398H10.9961ZM10.0156 10.4345C9.30506 9.66573 8.33426 9.33984 7.25391 9.33984V11.3398C7.92355 11.3398 8.30432 11.5296 8.54687 11.792L10.0156 10.4345ZM7.25391 9.33984C6.26942 9.33984 5.37118 9.60156 4.652 10.2084L5.94175 11.7369C6.22257 11.5 6.62901 11.3398 7.25391 11.3398V9.33984ZM4.61642 10.2399L4.2883 10.5445L5.6492 12.0101L5.97733 11.7055L4.61642 10.2399ZM5.2093 10.3067L2.51399 9.63874L2.03289 11.58L4.7282 12.248L5.2093 10.3067Z" fill="#1489DE"/>
</svg>
