<svg width="15" height="21" viewBox="0 0 15 21" fill="none" xmlns="http://www.w3.org/2000/svg">
<path d="M10.957 1.76172H11.957V0.761719H10.957V1.76172ZM10.957 4.55078V5.55078H11.957V4.55078H10.957ZM10.6289 4.55078V3.55078H10.6213L10.6136 3.5509L10.6289 4.55078ZM6.92578 5.74609L6.28939 4.97471L6.28623 4.97734L6.92578 5.74609ZM5.25 8.96875L4.25917 8.83364L3.85235 11.8169L5.96312 9.66979L5.25 8.96875ZM12.8086 16.3867L11.9283 15.9122L11.9252 15.9181L12.8086 16.3867ZM10.7695 18.4844L10.2767 17.6142L10.2734 17.6161L10.7695 18.4844ZM3.43359 17.3594L2.68334 18.0205L2.68567 18.0232L3.43359 17.3594ZM2.82422 6.23828L1.92783 5.79501L1.92684 5.79703L2.82422 6.23828ZM5.83594 2.94531L6.34588 3.80552L6.34742 3.80461L5.83594 2.94531ZM10.3945 1.76172V0.761708L10.39 0.761729L10.3945 1.76172ZM6.16406 10.7383L6.6981 11.5838L6.70853 11.5771L6.16406 10.7383ZM5.17969 11.8633L4.26777 11.4529L4.17969 11.6486V11.8633H5.17969ZM5.84766 15.5547L5.02653 16.1255L5.02985 16.1302L5.84766 15.5547ZM9.48047 15.6484L8.69341 15.0316L8.69228 15.033L9.48047 15.6484ZM9.95703 1.76172V4.55078H11.957V1.76172H9.95703ZM10.957 3.55078H10.6289V5.55078H10.957V3.55078ZM10.6136 3.5509C8.91562 3.57689 7.4434 4.02267 6.2894 4.97472L7.56216 6.51747C8.28316 5.92264 9.27969 5.57155 10.6442 5.55066L10.6136 3.5509ZM6.28623 4.97734C5.13603 5.93423 4.47511 7.25006 4.25917 8.83364L6.24083 9.10386C6.39989 7.93744 6.85616 7.10483 7.56533 6.51484L6.28623 4.97734ZM5.96312 9.66979C6.66731 8.95346 7.54821 8.58594 8.68359 8.58594V6.58594C7.05335 6.58594 5.64519 7.14029 4.53688 8.26771L5.96312 9.66979ZM8.68359 8.58594C9.8959 8.58594 10.7821 9.00344 11.4507 9.8154L12.9946 8.54398C11.9133 7.23093 10.44 6.58594 8.68359 6.58594V8.58594ZM11.4507 9.8154C12.1433 10.6563 12.5352 11.8108 12.5352 13.375H14.5352C14.5352 11.4705 14.052 9.82803 12.9946 8.54398L11.4507 9.8154ZM12.5352 13.375C12.5352 14.3335 12.3274 15.172 11.9284 15.9122L13.6888 16.8613C14.2585 15.8046 14.5352 14.6353 14.5352 13.375H12.5352ZM11.9252 15.9181C11.5377 16.6487 10.9933 17.2084 10.2767 17.6142L11.2624 19.3545C12.3114 18.7604 13.1264 17.9216 13.692 16.8553L11.9252 15.9181ZM10.2734 17.6161C9.56439 18.0213 8.74632 18.2344 7.79297 18.2344V20.2344C9.05837 20.2344 10.2247 19.9475 11.2657 19.3526L10.2734 17.6161ZM7.79297 18.2344C6.25778 18.2344 5.0856 17.7143 4.18152 16.6956L2.68567 18.0232C4.00033 19.5045 5.73441 20.2344 7.79297 20.2344V18.2344ZM4.18384 16.6982C3.2808 15.6735 2.78125 14.2615 2.78125 12.3555H0.78125C0.78125 14.6213 1.38326 16.5453 2.68335 18.0205L4.18384 16.6982ZM2.78125 12.3555V11.1367H0.78125V12.3555H2.78125ZM2.78125 11.1367C2.78125 9.41151 3.10465 7.93424 3.7216 6.67954L1.92684 5.79703C1.15317 7.37045 0.78125 9.1588 0.78125 11.1367H2.78125ZM3.72061 6.68155C4.34211 5.42474 5.21549 4.47563 6.34588 3.80552L5.32599 2.0851C3.84701 2.96187 2.71258 4.20807 1.92783 5.79501L3.72061 6.68155ZM6.34742 3.80461C7.48731 3.1261 8.82724 2.76882 10.3991 2.76171L10.39 0.761729C8.50869 0.770242 6.80956 1.20203 5.32445 2.08602L6.34742 3.80461ZM10.3945 2.76172H10.957V0.761719H10.3945V2.76172ZM7.65234 9.30469C6.91836 9.30469 6.23208 9.50192 5.61959 9.8995L6.70853 11.5771C6.98667 11.3965 7.29258 11.3047 7.65234 11.3047V9.30469ZM5.63007 9.89279C5.02315 10.2761 4.56133 10.8006 4.26777 11.4529L6.09161 12.2736C6.21992 11.9885 6.41435 11.763 6.69806 11.5838L5.63007 9.89279ZM4.17969 11.8633V12.8945H6.17969V11.8633H4.17969ZM4.17969 12.8945C4.17969 14.1434 4.42301 15.2572 5.02655 16.1255L6.66877 14.9839C6.38168 14.5709 6.17969 13.9113 6.17969 12.8945H4.17969ZM5.02985 16.1302C5.67115 17.0415 6.60794 17.5039 7.72266 17.5039V15.5039C7.22799 15.5039 6.91479 15.3335 6.66546 14.9792L5.02985 16.1302ZM7.72266 17.5039C8.75565 17.5039 9.63292 17.0781 10.2687 16.2639L8.69228 15.033C8.43739 15.3594 8.14279 15.5039 7.72266 15.5039V17.5039ZM10.2675 16.2653C10.8895 15.4717 11.1602 14.492 11.1602 13.4102H9.16016C9.16016 14.1564 8.97766 14.6689 8.69341 15.0316L10.2675 16.2653ZM11.1602 13.4102C11.1602 12.3179 10.892 11.3292 10.2634 10.5381L8.69751 11.7822C8.97518 12.1317 9.16016 12.643 9.16016 13.4102H11.1602ZM10.2634 10.5381C9.60966 9.71523 8.70491 9.30469 7.65234 9.30469V11.3047C8.13103 11.3047 8.44503 11.4645 8.69751 11.7822L10.2634 10.5381Z" fill="#1489DE"/>
</svg>
