<svg width="15" height="20" viewBox="0 0 15 20" fill="none" xmlns="http://www.w3.org/2000/svg">
<path d="M13.3711 3.83594L14.2881 4.2349L14.3711 4.04406V3.83594H13.3711ZM6.77344 19V20H7.4289L7.69041 19.399L6.77344 19ZM3.19922 19L2.29126 18.5809L1.63631 20H3.19922V19ZM9.80859 4.67969L10.7166 5.09875L11.3715 3.67969H9.80859V4.67969ZM1.32422 4.67969H0.324219V5.67969H1.32422V4.67969ZM1.32422 1.9375V0.9375H0.324219V1.9375H1.32422ZM13.3711 1.9375H14.3711V0.9375H13.3711V1.9375ZM12.4541 3.43698L5.85647 18.601L7.69041 19.399L14.2881 4.2349L12.4541 3.43698ZM6.77344 18H3.19922V20H6.77344V18ZM4.10718 19.4191L10.7166 5.09875L8.90063 4.26063L2.29126 18.5809L4.10718 19.4191ZM9.80859 3.67969H1.32422V5.67969H9.80859V3.67969ZM2.32422 4.67969V1.9375H0.324219V4.67969H2.32422ZM1.32422 2.9375H13.3711V0.9375H1.32422V2.9375ZM12.3711 1.9375V3.83594H14.3711V1.9375H12.3711Z" fill="#1489DE"/>
</svg>
