<svg width="15" height="21" viewBox="0 0 15 21" fill="none" xmlns="http://www.w3.org/2000/svg">
<path d="M10.5586 10.2109L10.0925 9.32623L8.33637 10.2515L10.125 11.1121L10.5586 10.2109ZM12.5273 11.8633L11.7038 12.4306L11.7068 12.4349L12.5273 11.8633ZM11.707 17.9219L12.354 18.6844L12.3573 18.6815L11.707 17.9219ZM4.40625 10.2109L4.83618 11.1138L6.6373 10.2561L4.87239 9.32623L4.40625 10.2109ZM2.69531 8.67578L1.85077 9.21134L1.85547 9.21861L2.69531 8.67578ZM3.53906 3.00391L4.20268 3.75199L4.20603 3.74899L3.53906 3.00391ZM11.4258 2.99219L10.7621 3.74029L10.7686 3.74588L11.4258 2.99219ZM5.75391 12.2969L6.46738 12.9976L6.47353 12.9912L5.75391 12.2969ZM9.22266 15.8594L8.50906 15.1588L8.50258 15.1655L9.22266 15.8594ZM8.97656 5.04297L8.22036 5.69738L8.22672 5.70459L8.97656 5.04297ZM8.97656 8.27734L8.21422 7.63007L8.20715 7.63859L8.97656 8.27734ZM11.8906 6.47266C11.8906 7.12538 11.7303 7.66793 11.4297 8.13296L13.1094 9.21861C13.6369 8.40238 13.8906 7.47618 13.8906 6.47266H11.8906ZM11.4297 8.13296C11.1159 8.61846 10.6792 9.0171 10.0925 9.32623L11.0247 11.0956C11.8911 10.6392 12.5951 10.0144 13.1094 9.21861L11.4297 8.13296ZM10.125 11.1121C10.8087 11.441 11.3257 11.8817 11.7038 12.4306L13.3509 11.296C12.7603 10.4387 11.9647 9.77775 10.9922 9.30981L10.125 11.1121ZM11.7068 12.4349C12.061 12.9434 12.2539 13.5587 12.2539 14.3242H14.2539C14.2539 13.1991 13.9624 12.1738 13.3479 11.2917L11.7068 12.4349ZM12.2539 14.3242C12.2539 15.5859 11.8386 16.4929 11.0567 17.1622L12.3573 18.6815C13.638 17.5852 14.2539 16.0938 14.2539 14.3242H12.2539ZM11.0601 17.1594C10.2594 17.8387 9.1113 18.2344 7.5 18.2344V20.2344C9.43557 20.2344 11.0922 19.755 12.354 18.6844L11.0601 17.1594ZM7.5 18.2344C5.89119 18.2344 4.73848 17.8361 3.92873 17.1481L2.63377 18.6722C3.90214 19.7499 5.56194 20.2344 7.5 20.2344V18.2344ZM3.92873 17.1481C3.13867 16.4768 2.72266 15.5736 2.72266 14.3242H0.722656C0.722656 16.0905 1.3457 17.5779 2.63377 18.6722L3.92873 17.1481ZM2.72266 14.3242C2.72266 13.5589 2.91551 12.9374 3.27273 12.4189L1.62571 11.2843C1.01418 12.172 0.722656 13.1989 0.722656 14.3242H2.72266ZM3.27273 12.4189C3.65119 11.8695 4.16369 11.434 4.83618 11.1138L3.97632 9.30808C3.00818 9.76909 2.21599 10.4274 1.62571 11.2843L3.27273 12.4189ZM4.87239 9.32623C4.28567 9.0171 3.84896 8.61846 3.53516 8.13296L1.85547 9.21861C2.36979 10.0144 3.0737 10.6392 3.94011 11.0956L4.87239 9.32623ZM3.53982 8.14024C3.24439 7.67437 3.08594 7.12919 3.08594 6.47266H1.08594C1.08594 7.47237 1.33374 8.39595 1.8508 9.21132L3.53982 8.14024ZM3.08594 6.47266C3.08594 5.26662 3.47534 4.3972 4.20268 3.75198L2.87545 2.25583C1.66528 3.32936 1.08594 4.77245 1.08594 6.47266H3.08594ZM4.20603 3.74899C4.94462 3.08784 5.99934 2.70312 7.48828 2.70312V0.703125C5.6491 0.703125 4.07101 1.1856 2.87209 2.25882L4.20603 3.74899ZM7.48828 2.70312C8.97021 2.70312 10.0229 3.08443 10.7622 3.74026L12.0894 2.24411C10.8912 1.18119 9.31885 0.703125 7.48828 0.703125V2.70312ZM10.7686 3.74588C11.4969 4.381 11.8906 5.24987 11.8906 6.47266H13.8906C13.8906 4.75794 13.3078 3.3065 12.083 2.23849L10.7686 3.74588ZM10.8555 14.0781C10.8555 13.1319 10.575 12.2704 9.93056 11.6025L8.49132 12.9912C8.70627 13.214 8.85547 13.54 8.85547 14.0781H10.8555ZM9.93056 11.6025C9.27959 10.9279 8.42332 10.6289 7.47656 10.6289V12.6289C7.98293 12.6289 8.28291 12.7753 8.49132 12.9912L9.93056 11.6025ZM7.47656 10.6289C6.53406 10.6289 5.68314 10.9301 5.03429 11.6025L6.47353 12.9912C6.68404 12.7731 6.98156 12.6289 7.47656 12.6289V10.6289ZM5.04046 11.5962C4.38781 12.2607 4.10938 13.128 4.10938 14.0781H6.10938C6.10938 13.5282 6.26063 13.2081 6.46735 12.9976L5.04046 11.5962ZM4.10938 14.0781C4.10938 15.0103 4.3866 15.8591 5.01623 16.5237L6.46814 15.1482C6.25403 14.9222 6.10938 14.5991 6.10938 14.0781H4.10938ZM5.01623 16.5237C5.66778 17.2114 6.54102 17.5039 7.5 17.5039V15.5039C6.95898 15.5039 6.66035 15.3511 6.46814 15.1482L5.01623 16.5237ZM7.5 17.5039C8.4391 17.5039 9.29831 17.222 9.94273 16.5533L8.50258 15.1655C8.31887 15.3561 8.02965 15.5039 7.5 15.5039V17.5039ZM9.93622 16.56C10.5861 15.898 10.8555 15.0268 10.8555 14.0781H8.85547C8.85547 14.6451 8.70292 14.9614 8.50909 15.1588L9.93622 16.56ZM10.5039 6.63672C10.5039 5.7921 10.2765 5.00482 9.7264 4.38135L8.22672 5.70459C8.37973 5.87799 8.50391 6.15322 8.50391 6.63672H10.5039ZM9.73273 4.38859C9.15446 3.72036 8.35784 3.43359 7.48828 3.43359V5.43359C7.89997 5.43359 8.09554 5.55308 8.22039 5.69735L9.73273 4.38859ZM7.48828 3.43359C6.63492 3.43359 5.84801 3.70659 5.26842 4.35057L6.75501 5.6885C6.87856 5.55123 7.07602 5.43359 7.48828 5.43359V3.43359ZM5.26842 4.35057C4.70597 4.97551 4.48438 5.78013 4.48438 6.63672H6.48438C6.48438 6.11831 6.61434 5.8448 6.75501 5.6885L5.26842 4.35057ZM4.48438 6.63672C4.48438 7.49208 4.70885 8.28789 5.24942 8.92457L6.77401 7.63011C6.61147 7.43867 6.48438 7.14074 6.48438 6.63672H4.48438ZM5.24942 8.92457C5.8257 9.60329 6.62404 9.89844 7.5 9.89844V7.89844C7.09471 7.89844 6.90087 7.77952 6.77401 7.63011L5.24942 8.92457ZM7.5 9.89844C8.37538 9.89844 9.17554 9.60322 9.74597 8.9161L8.20715 7.63859C8.09009 7.7796 7.90587 7.89844 7.5 7.89844V9.89844ZM9.73886 8.92457C10.2794 8.28789 10.5039 7.49208 10.5039 6.63672H8.50391C8.50391 7.14074 8.37681 7.43867 8.21427 7.63011L9.73886 8.92457Z" fill="#1489DE"/>
</svg>
