<svg width="15" height="21" viewBox="0 0 15 21" fill="none" xmlns="http://www.w3.org/2000/svg">
<path d="M9.69141 12.1797L10.6872 12.2713L10.9371 9.55425L8.99064 11.4663L9.69141 12.1797ZM2.97656 11.9336L2.22293 12.5909L2.2254 12.5937L2.97656 11.9336ZM2.34375 4.66797L1.45835 4.20313L1.4569 4.20591L2.34375 4.66797ZM4.39453 2.48828L4.90224 3.34984L4.9079 3.34645L4.39453 2.48828ZM13.125 8.59375H14.125L14.125 8.588L13.125 8.59375ZM4.99219 19.1523L5.00627 20.1522L5.0203 20.152L5.03432 20.1515L4.99219 19.1523ZM4.16016 19.1641H3.16016V20.1782L4.17424 20.164L4.16016 19.1641ZM4.16016 16.3398L4.14453 15.34L3.16016 15.3553V16.3398H4.16016ZM4.91016 16.3281L4.92578 17.328L4.9405 17.3278L4.9552 17.3271L4.91016 16.3281ZM8.83594 10.4688L8.25923 9.65175L8.25163 9.65722L8.83594 10.4688ZM9.73828 9.44922L10.6292 9.90341L10.7383 9.68941V9.44922H9.73828ZM5.64844 5.37109L6.46427 5.94941L6.46767 5.94456L5.64844 5.37109ZM5.625 10L4.80627 10.5742L4.81053 10.5803L4.81488 10.5863L5.625 10ZM8.99064 11.4663C8.28466 12.1598 7.5013 12.4805 6.59766 12.4805V14.4805C8.05339 14.4805 9.33253 13.934 10.3922 12.8931L8.99064 11.4663ZM6.59766 12.4805C5.34572 12.4805 4.42413 12.0659 3.72773 11.2735L2.2254 12.5937C3.3415 13.8638 4.83397 14.4805 6.59766 14.4805V12.4805ZM3.73019 11.2763C3.02259 10.465 2.61719 9.32275 2.61719 7.73828H0.617188C0.617188 9.66944 1.11804 11.3241 2.22293 12.5909L3.73019 11.2763ZM2.61719 7.73828C2.61719 6.77111 2.82542 5.90771 3.2306 5.13002L1.4569 4.20591C0.893328 5.28761 0.617188 6.47108 0.617188 7.73828H2.61719ZM3.22915 5.1328C3.63867 4.35276 4.19461 3.76681 4.90222 3.34982L3.88684 1.62674C2.84446 2.241 2.0332 3.10818 1.45835 4.20313L3.22915 5.1328ZM4.9079 3.34645C5.61644 2.92259 6.42106 2.70312 7.34766 2.70312V0.703125C6.08675 0.703125 4.92262 1.0071 3.88116 1.63011L4.9079 3.34645ZM7.34766 2.70312C8.2972 2.70312 9.10638 2.93772 9.8069 3.38805L10.8884 1.7057C9.83894 1.03103 8.64811 0.703125 7.34766 0.703125V2.70312ZM9.8069 3.38805C10.5031 3.83562 11.0638 4.48809 11.478 5.39001L13.2955 4.55531C12.7409 3.34785 11.9422 2.38313 10.8884 1.7057L9.8069 3.38805ZM11.478 5.39001C11.8937 6.29528 12.1179 7.35813 12.125 8.5995L14.125 8.588C14.1165 7.11062 13.8485 5.7594 13.2955 4.55531L11.478 5.39001ZM12.125 8.59375V9.84766H14.125V8.59375H12.125ZM12.125 9.84766C12.125 12.5286 11.4603 14.5029 10.2495 15.8943L11.7583 17.2072C13.3756 15.3487 14.125 12.8542 14.125 9.84766H12.125ZM10.2495 15.8943C9.05209 17.2704 7.33011 18.0529 4.95006 18.1532L5.03432 20.1515C7.84177 20.0331 10.1276 19.0812 11.7583 17.2072L10.2495 15.8943ZM4.9781 18.1524L4.14607 18.1642L4.17424 20.164L5.00627 20.1522L4.9781 18.1524ZM5.16016 19.1641V16.3398H3.16016V19.1641H5.16016ZM4.17578 17.3397L4.92578 17.328L4.89453 15.3282L4.14453 15.34L4.17578 17.3397ZM4.9552 17.3271C6.56504 17.2545 7.94646 16.8346 8.96981 15.9467C10.0077 15.0462 10.5487 13.7764 10.6872 12.2713L8.69561 12.0881C8.59188 13.2158 8.21493 13.9538 7.6591 14.4361C7.08869 14.931 6.20058 15.2689 4.86511 15.3291L4.9552 17.3271ZM7.42969 11.8906C8.15656 11.8906 8.83681 11.7004 9.42024 11.2803L8.25163 9.65722C8.05382 9.79964 7.79656 9.89062 7.42969 9.89062V11.8906ZM9.41262 11.2857C9.93143 10.9195 10.3458 10.4593 10.6292 9.90341L8.84737 8.99503C8.72452 9.23602 8.53732 9.4555 8.25925 9.65178L9.41262 11.2857ZM10.7383 9.44922V8.05469H8.73828V9.44922H10.7383ZM10.7383 8.05469C10.7383 6.79755 10.5017 5.67782 9.90459 4.81413L8.25947 5.95149C8.53735 6.35343 8.73828 7.01495 8.73828 8.05469H10.7383ZM9.90459 4.81413C9.2909 3.92648 8.4051 3.43359 7.32422 3.43359V5.43359C7.71209 5.43359 7.99816 5.57352 8.25947 5.95149L9.90459 4.81413ZM7.32422 3.43359C6.27439 3.43359 5.42721 3.94334 4.82921 4.79763L6.46767 5.94456C6.74467 5.54884 7.01467 5.43359 7.32422 5.43359V3.43359ZM4.83262 4.79279C4.24925 5.61576 3.99219 6.60856 3.99219 7.70312H5.99219C5.99219 6.92269 6.17263 6.36081 6.46426 5.9494L4.83262 4.79279ZM3.99219 7.70312C3.99219 8.78359 4.23849 9.76457 4.80627 10.5742L6.44373 9.42583C6.16776 9.03231 5.99219 8.48203 5.99219 7.70312H3.99219ZM4.81488 10.5863C5.44452 11.4563 6.35633 11.8906 7.42969 11.8906V9.89062C6.95617 9.89062 6.66486 9.73119 6.43512 9.41373L4.81488 10.5863Z" fill="#1489DE"/>
</svg>
