<svg width="26" height="26" viewBox="0 0 26 26" fill="none" xmlns="http://www.w3.org/2000/svg">
<path fill-rule="evenodd" clip-rule="evenodd" d="M8.125 0L17.875 0C22.3616 0 26 3.63838 26 8.125L26 17.875C26 22.3616 22.3616 26 17.875 26L8.125 26C3.63838 26 0 22.3616 0 17.875L0 8.125C0 3.63838 3.63838 0 8.125 0ZM17.875 23.5625C21.0113 23.5625 23.5625 21.0113 23.5625 17.875L23.5625 8.125C23.5625 4.98875 21.0113 2.4375 17.875 2.4375L8.125 2.4375C4.98875 2.4375 2.4375 4.98875 2.4375 8.125L2.4375 17.875C2.4375 21.0113 4.98875 23.5625 8.125 23.5625L17.875 23.5625ZM6.5 13C6.5 9.41038 9.41038 6.5 13 6.5C16.5896 6.5 19.5 9.41038 19.5 13C19.5 16.5896 16.5896 19.5 13 19.5C9.41038 19.5 6.5 16.5896 6.5 13ZM8.9375 13C8.9375 15.2393 10.7607 17.0625 13 17.0625C15.2393 17.0625 17.0625 15.2393 17.0625 13C17.0625 10.7591 15.2393 8.9375 13 8.9375C10.7607 8.9375 8.9375 10.7591 8.9375 13ZM20.8537 6.0125C20.8537 6.49085 20.4659 6.87862 19.9876 6.87862C19.5093 6.87862 19.1215 6.49085 19.1215 6.0125C19.1215 5.53415 19.5093 5.14637 19.9876 5.14637C20.4659 5.14637 20.8537 5.53415 20.8537 6.0125Z" fill="#1489DE"/>
</svg>
