<svg width="21" height="15" viewBox="0 0 21 15" fill="none" xmlns="http://www.w3.org/2000/svg">
<path d="M20.7553 8.19922C19.6132 9.62098 15.5344 14.2592 10.5 14.2592C5.46559 14.2592 1.38679 9.62098 0.244728 8.19922C-0.081576 7.803 -0.081576 7.22031 0.244728 6.80078C1.38679 5.37902 5.46559 0.740843 10.5 0.740843C15.5344 0.740843 19.6132 5.37902 20.7553 6.80078C21.0816 7.197 21.0816 7.77969 20.7553 8.19922ZM10.5 2.60544C7.79634 2.60544 5.60544 4.79634 5.60544 7.5C5.60544 10.2037 7.79634 12.3946 10.5 12.3946C13.2037 12.3946 15.3946 10.2037 15.3946 7.5C15.3946 4.79634 13.2037 2.60544 10.5 2.60544Z" fill="black" fill-opacity="0.29"/>
</svg>
