<svg width="26" height="22" viewBox="0 0 26 22" fill="none" xmlns="http://www.w3.org/2000/svg">
<path d="M26 2.60446C25.0331 3.04615 24.0029 3.33892 22.9288 3.48108C24.0338 2.794 24.8771 1.71431 25.2736 0.412923C24.2434 1.05262 23.1059 1.50446 21.8936 1.75662C20.9154 0.671846 19.5211 0 18.0001 0C15.0491 0 12.6734 2.49446 12.6734 5.55246C12.6734 5.99246 12.7091 6.41554 12.7969 6.81831C8.3655 6.59323 4.44438 4.38138 1.81025 1.012C1.35038 1.84292 1.08063 2.794 1.08063 3.81785C1.08063 5.74031 2.03125 7.44446 3.44825 8.43108C2.59188 8.41415 1.75175 8.15523 1.04 7.74739C1.04 7.76431 1.04 7.78631 1.04 7.80831C1.04 10.5058 2.88762 12.7465 5.3105 13.2626C4.87663 13.3862 4.40375 13.4454 3.913 13.4454C3.57175 13.4454 3.22725 13.4251 2.90388 13.3506C3.5945 15.5489 5.55425 17.1651 7.8845 17.2175C6.071 18.6949 3.76838 19.5851 1.27563 19.5851C0.8385 19.5851 0.41925 19.5648 0 19.5089C2.36113 21.0946 5.15938 22 8.177 22C17.9855 22 23.348 13.5385 23.348 6.204C23.348 5.95862 23.3399 5.72169 23.3285 5.48646C24.3864 4.70462 25.2753 3.72815 26 2.60446Z" fill="white"/>
</svg>
