<svg width="128" height="32" viewBox="0 0 128 32" fill="none" xmlns="http://www.w3.org/2000/svg">
<path d="M8.022 1.306L15.288 23.65L22.554 1.306H30.24L19.908 31H10.626L0.336 1.306H8.022ZM40.1756 1.306V31H32.9936V1.306H40.1756ZM71.8463 16.09C71.8463 19.002 71.2163 21.592 69.9563 23.86C68.7243 26.1 66.9323 27.85 64.5803 29.11C62.2563 30.37 59.5123 31 56.3483 31H45.1343V1.306H56.3483C59.5403 1.306 62.2983 1.922 64.6223 3.154C66.9463 4.386 68.7243 6.122 69.9563 8.362C71.2163 10.602 71.8463 13.178 71.8463 16.09ZM55.7183 24.574C58.5183 24.574 60.6883 23.832 62.2283 22.348C63.7963 20.864 64.5803 18.778 64.5803 16.09C64.5803 13.402 63.7963 11.316 62.2283 9.832C60.6883 8.348 58.5183 7.606 55.7183 7.606H52.3163V24.574H55.7183ZM83.119 7.018V13.234H93.157V18.652H83.119V25.246H94.417V31H75.937V1.306H94.417V7.018H83.119ZM112.608 0.843998C115.408 0.843998 117.942 1.502 120.21 2.818C122.506 4.106 124.312 5.912 125.628 8.236C126.944 10.532 127.602 13.136 127.602 16.048C127.602 18.96 126.93 21.578 125.586 23.902C124.27 26.226 122.464 28.046 120.168 29.362C117.9 30.65 115.38 31.294 112.608 31.294C109.836 31.294 107.302 30.65 105.006 29.362C102.738 28.046 100.932 26.226 99.5876 23.902C98.2716 21.578 97.6136 18.96 97.6136 16.048C97.6136 13.136 98.2716 10.532 99.5876 8.236C100.932 5.912 102.738 4.106 105.006 2.818C107.302 1.502 109.836 0.843998 112.608 0.843998ZM112.608 7.522C110.256 7.522 108.38 8.292 106.98 9.832C105.608 11.344 104.922 13.416 104.922 16.048C104.922 18.652 105.608 20.724 106.98 22.264C108.38 23.804 110.256 24.574 112.608 24.574C114.932 24.574 116.794 23.804 118.194 22.264C119.594 20.724 120.294 18.652 120.294 16.048C120.294 13.444 119.594 11.372 118.194 9.832C116.822 8.292 114.96 7.522 112.608 7.522Z" fill="white"/>
</svg>
