<svg width="131" height="34" viewBox="0 0 131 34" fill="none" xmlns="http://www.w3.org/2000/svg">
<path d="M10.022 2.306L10.973 1.99675L10.7484 1.306H10.022V2.306ZM17.288 24.65L16.337 24.9592L17.288 27.8837L18.239 24.9592L17.288 24.65ZM24.554 2.306V1.306H23.8276L23.603 1.99675L24.554 2.306ZM32.24 2.306L33.1845 2.63462L33.6468 1.306H32.24V2.306ZM21.908 32V33H22.6189L22.8525 32.3286L21.908 32ZM12.626 32L11.6811 32.3274L11.9142 33H12.626V32ZM2.336 2.306V1.306H0.931124L1.39113 2.63343L2.336 2.306ZM9.07102 2.61525L16.337 24.9592L18.239 24.3408L10.973 1.99675L9.07102 2.61525ZM18.239 24.9592L25.505 2.61525L23.603 1.99675L16.337 24.3408L18.239 24.9592ZM24.554 3.306H32.24V1.306H24.554V3.306ZM31.2955 1.97738L20.9635 31.6714L22.8525 32.3286L33.1845 2.63462L31.2955 1.97738ZM21.908 31H12.626V33H21.908V31ZM13.5709 31.6726L3.28087 1.97857L1.39113 2.63343L11.6811 32.3274L13.5709 31.6726ZM2.336 3.306H10.022V1.306H2.336V3.306ZM42.1756 2.306H43.1756V1.306H42.1756V2.306ZM42.1756 32V33H43.1756V32H42.1756ZM34.9936 32H33.9936V33H34.9936V32ZM34.9936 2.306V1.306H33.9936V2.306H34.9936ZM41.1756 2.306V32H43.1756V2.306H41.1756ZM42.1756 31H34.9936V33H42.1756V31ZM35.9936 32V2.306H33.9936V32H35.9936ZM34.9936 3.306H42.1756V1.306H34.9936V3.306ZM71.9563 24.86L71.0821 24.3744L71.08 24.3781L71.9563 24.86ZM66.5803 30.11L66.108 29.2285L66.1036 29.2309L66.5803 30.11ZM47.1343 32H46.1343V33H47.1343V32ZM47.1343 2.306V1.306H46.1343V2.306H47.1343ZM66.6223 4.154L67.0906 3.27047V3.27047L66.6223 4.154ZM71.9563 9.362L71.08 9.84394L71.0847 9.85226L71.9563 9.362ZM64.2283 23.348L63.5408 22.6217L63.5344 22.6279L64.2283 23.348ZM64.2283 10.832L63.5343 11.5521L63.5409 11.5583L64.2283 10.832ZM54.3162 8.606V7.606H53.3162V8.606H54.3162ZM54.3162 25.574H53.3162V26.574H54.3162V25.574ZM72.8463 17.09C72.8463 19.8532 72.2499 22.2724 71.0821 24.3744L72.8304 25.3456C74.1826 22.9116 74.8463 20.1508 74.8463 17.09H72.8463ZM71.08 24.3781C69.9454 26.441 68.2974 28.0556 66.108 29.2285L67.0525 30.9915C69.5671 29.6444 71.5031 27.759 72.8325 25.3419L71.08 24.3781ZM66.1036 29.2309C63.9522 30.3973 61.3784 31 58.3483 31V33C61.6461 33 64.5603 32.3427 67.0569 30.9891L66.1036 29.2309ZM58.3483 31H47.1343V33H58.3483V31ZM48.1343 32V2.306H46.1343V32H48.1343ZM47.1343 3.306H58.3483V1.306H47.1343V3.306ZM58.3483 3.306C61.4115 3.306 64.0019 3.8967 66.1539 5.03753L67.0906 3.27047C64.5946 1.9473 61.669 1.306 58.3483 1.306V3.306ZM66.1539 5.03753C68.311 6.18105 69.9448 7.77982 71.08 9.84392L72.8325 8.88008C71.5037 6.46418 69.5815 4.59095 67.0906 3.27047L66.1539 5.03753ZM71.0847 9.85226C72.2498 11.9236 72.8463 14.3265 72.8463 17.09H74.8463C74.8463 14.0295 74.1827 11.2804 72.8278 8.87174L71.0847 9.85226ZM57.7183 26.574C60.6943 26.574 63.1437 25.7819 64.9221 24.0681L63.5344 22.6279C62.2328 23.8821 60.3422 24.574 57.7183 24.574V26.574ZM64.9156 24.0743C66.73 22.3571 67.5803 19.9809 67.5803 17.09H65.5802C65.5802 19.5751 64.8625 21.3709 63.5409 22.6217L64.9156 24.0743ZM67.5803 17.09C67.5803 14.1991 66.73 11.8229 64.9156 10.1057L63.5409 11.5583C64.8625 12.8091 65.5802 14.6049 65.5802 17.09H67.5803ZM64.9221 10.1119C63.1437 8.39812 60.6943 7.606 57.7183 7.606V9.606C60.3422 9.606 62.2328 10.2979 63.5344 11.5521L64.9221 10.1119ZM57.7183 7.606H54.3162V9.606H57.7183V7.606ZM53.3162 8.606V25.574H55.3162V8.606H53.3162ZM54.3162 26.574H57.7183V24.574H54.3162V26.574ZM85.119 8.018V7.018H84.119V8.018H85.119ZM85.119 14.234H84.119V15.234H85.119V14.234ZM95.157 14.234H96.157V13.234H95.157V14.234ZM95.157 19.652V20.652H96.157V19.652H95.157ZM85.119 19.652V18.652H84.119V19.652H85.119ZM85.119 26.246H84.119V27.246H85.119V26.246ZM96.417 26.246H97.417V25.246H96.417V26.246ZM96.417 32V33H97.417V32H96.417ZM77.937 32H76.937V33H77.937V32ZM77.937 2.306V1.306H76.937V2.306H77.937ZM96.417 2.306H97.417V1.306H96.417V2.306ZM96.417 8.018V9.018H97.417V8.018H96.417ZM84.119 8.018V14.234H86.119V8.018H84.119ZM85.119 15.234H95.157V13.234H85.119V15.234ZM94.157 14.234V19.652H96.157V14.234H94.157ZM95.157 18.652H85.119V20.652H95.157V18.652ZM84.119 19.652V26.246H86.119V19.652H84.119ZM85.119 27.246H96.417V25.246H85.119V27.246ZM95.417 26.246V32H97.417V26.246H95.417ZM96.417 31H77.937V33H96.417V31ZM78.937 32V2.306H76.937V32H78.937ZM77.937 3.306H96.417V1.306H77.937V3.306ZM95.417 2.306V8.018H97.417V2.306H95.417ZM96.417 7.018H85.119V9.018H96.417V7.018ZM122.21 3.818L121.708 4.68294L121.714 4.68659L121.72 4.69014L122.21 3.818ZM127.628 9.236L126.757 9.72875L126.76 9.73328L127.628 9.236ZM127.586 24.902L126.72 24.4014L126.715 24.4093L127.586 24.902ZM122.168 30.362L122.661 31.2316L122.665 31.2296L122.168 30.362ZM107.006 30.362L106.504 31.2269L106.51 31.2306L106.516 31.2341L107.006 30.362ZM101.588 24.902L100.717 25.3948L100.722 25.4026L101.588 24.902ZM101.588 9.236L100.722 8.73537L100.72 8.73872L101.588 9.236ZM107.006 3.818L107.499 4.68757L107.503 4.68559L107.006 3.818ZM108.98 10.832L108.24 10.1593L108.239 10.16L108.98 10.832ZM108.98 23.264L108.233 23.9292L108.24 23.9367L108.98 23.264ZM120.194 23.264L119.454 22.5913L120.194 23.264ZM120.194 10.832L119.447 11.4972L119.454 11.5047L120.194 10.832ZM114.608 2.844C117.244 2.844 119.603 3.46142 121.708 4.68294L122.711 2.95306C120.281 1.54258 117.571 0.843998 114.608 0.843998V2.844ZM121.72 4.69014C123.855 5.88747 125.53 7.56119 126.757 9.72875L128.498 8.74325C127.093 6.26281 125.156 4.32453 122.699 2.94586L121.72 4.69014ZM126.76 9.73328C127.981 11.863 128.602 14.2925 128.602 17.048H130.602C130.602 13.9795 129.906 11.201 128.495 8.73872L126.76 9.73328ZM128.602 17.048C128.602 19.7996 127.969 22.2423 126.72 24.4014L128.451 25.4026C129.891 22.9137 130.602 20.1204 130.602 17.048H128.602ZM126.715 24.4093C125.487 26.5786 123.809 28.2685 121.67 29.4944L122.665 31.2296C125.118 29.8235 127.052 27.8734 128.456 25.3947L126.715 24.4093ZM121.674 29.4924C119.566 30.6896 117.218 31.294 114.608 31.294V33.294C117.541 33.294 120.233 32.6104 122.661 31.2316L121.674 29.4924ZM114.608 31.294C111.998 31.294 109.633 30.6895 107.495 29.4899L106.516 31.2341C108.97 32.6105 111.674 33.294 114.608 33.294V31.294ZM107.507 29.4971C105.394 28.2708 103.712 26.578 102.453 24.4014L100.722 25.4026C102.151 27.874 104.081 29.8212 106.504 31.2269L107.507 29.4971ZM102.458 24.4093C101.234 22.2489 100.614 19.8033 100.614 17.048H98.6136C98.6136 20.1167 99.3087 22.9071 100.717 25.3947L102.458 24.4093ZM100.614 17.048C100.614 14.2925 101.234 11.863 102.455 9.73328L100.72 8.73872C99.3087 11.201 98.6136 13.9795 98.6136 17.048H100.614ZM102.453 9.73662C103.711 7.56174 105.391 5.88515 107.499 4.68756L106.512 2.94844C104.085 4.32685 102.152 6.26226 100.722 8.73537L102.453 9.73662ZM107.503 4.68559C109.64 3.46054 112.001 2.844 114.608 2.844V0.843998C111.67 0.843998 108.963 1.54346 106.508 2.95041L107.503 4.68559ZM114.608 7.522C112.014 7.522 109.855 8.38261 108.24 10.1593L109.72 11.5047C110.904 10.2014 112.497 9.522 114.608 9.522V7.522ZM108.239 10.16C106.656 11.9043 105.922 14.2416 105.922 17.048H107.922C107.922 14.5904 108.559 12.7837 109.72 11.504L108.239 10.16ZM105.922 17.048C105.922 19.8307 106.658 22.1617 108.233 23.9292L109.726 22.5988C108.557 21.2863 107.922 19.4733 107.922 17.048H105.922ZM108.24 23.9367C109.855 25.7134 112.014 26.574 114.608 26.574V24.574C112.497 24.574 110.904 23.8946 109.72 22.5913L108.24 23.9367ZM114.608 26.574C117.177 26.574 119.321 25.7107 120.934 23.9367L119.454 22.5913C118.266 23.8973 116.686 24.574 114.608 24.574V26.574ZM120.934 23.9367C122.54 22.1696 123.294 19.8357 123.294 17.048H121.294C121.294 19.4683 120.647 21.2784 119.454 22.5913L120.934 23.9367ZM123.294 17.048C123.294 14.2603 122.54 11.9264 120.934 10.1593L119.454 11.5047C120.647 12.8176 121.294 14.6277 121.294 17.048H123.294ZM120.94 10.1668C119.351 8.3828 117.2 7.522 114.608 7.522V9.522C116.719 9.522 118.292 10.2012 119.447 11.4972L120.94 10.1668Z" fill="white"/>
</svg>
