<svg width="27" height="19" viewBox="0 0 27 19" fill="none" xmlns="http://www.w3.org/2000/svg">
<path fill-rule="evenodd" clip-rule="evenodd" d="M22.7216 0.844872C24.2934 0.933373 25.0653 1.1661 25.7766 2.43134C26.5174 3.69494 26.891 5.87141 26.891 9.70482V9.70974V9.71793C26.891 13.5333 26.5174 15.7262 25.7782 16.9767C25.0669 18.2419 24.295 18.4714 22.7233 18.5779C21.1516 18.668 17.2034 18.7221 13.783 18.7221C10.3561 18.7221 6.40628 18.668 4.83621 18.5762C3.26777 18.4697 2.49584 18.2403 1.778 16.975C1.04541 15.7245 0.668457 13.5317 0.668457 9.7163V9.71302V9.7081V9.70318C0.668457 5.87141 1.04541 3.69494 1.778 2.43134C2.49584 1.16446 3.26941 0.933373 4.83785 0.843233C6.40628 0.738342 10.3561 0.694092 13.783 0.694092C17.2034 0.694092 21.1516 0.738342 22.7216 0.844872ZM10.5019 4.79137L10.5019 14.6248L18.6965 9.7081L10.5019 4.79137Z" fill="#1489DE"/>
</svg>
