<svg width="113" height="27" viewBox="0 0 113 27" fill="none" xmlns="http://www.w3.org/2000/svg">
<path d="M0 0.137915C1.36083 0.177939 2.76169 0.197949 4.18255 0.197949C4.70287 0.177937 5.52337 0.157926 6.64406 0.117902C7.76474 0.0778772 8.5252 0.0578613 8.94546 0.0578613C11.407 0.0578613 13.2481 0.45811 14.4888 1.23859C15.7296 2.01906 16.35 3.15976 16.35 4.64066C16.35 6.96208 14.9691 8.58306 12.2275 9.4636C13.8284 9.68374 15.0692 10.2441 15.9297 11.1446C16.7902 12.0452 17.2305 13.1459 17.2305 14.4867C17.2305 16.4279 16.45 17.9288 14.8891 18.9894C13.3281 20.0501 11.1268 20.5904 8.26504 20.5904C7.7047 20.5904 7.10434 20.5704 6.50397 20.5504C5.88359 20.5304 5.12313 20.5103 4.20256 20.5103C2.7817 20.5103 1.42087 20.5304 0.0800491 20.5504L0 19.8299L1.94119 19.2896C2.18133 19.2296 2.32142 19.0695 2.34143 18.8293C2.34143 18.4491 2.36144 18.0088 2.36144 17.5285C2.36144 17.0482 2.36144 16.5279 2.36144 15.9275V4.34048C2.36144 3.86019 2.36144 3.41992 2.36144 3.01967C2.36144 2.61943 2.34143 2.25921 2.34143 1.93901C2.34143 1.67886 2.22136 1.51875 2.00122 1.45872L0.0600372 0.898377L0 0.137915ZM6.70409 9.12339C7.2044 9.12339 7.66468 9.14341 8.10495 9.14341C9.3457 9.14341 10.2663 8.84323 10.8666 8.24286C11.467 7.6425 11.7672 6.64188 11.7672 5.22102C11.7672 3.8802 11.467 2.91961 10.8466 2.33926C10.2262 1.7589 9.3457 1.45872 8.18499 1.45872C8.00488 1.45872 7.78475 1.45872 7.5446 1.47873C7.30446 1.49874 7.02429 1.51875 6.7241 1.55878V9.12339H6.70409ZM6.70409 10.4242V19.1095C7.24442 19.1895 7.82477 19.2496 8.42514 19.2496C9.74595 19.2496 10.7666 18.8693 11.447 18.0889C12.1274 17.3284 12.4876 16.2077 12.4876 14.7468C12.4876 13.2859 12.1474 12.2053 11.447 11.4848C10.7466 10.7644 9.62587 10.4242 8.06492 10.4242C7.58463 10.4242 7.14436 10.4242 6.70409 10.4242Z" fill="white"/>
<path d="M19.452 0.139771C20.8129 0.179795 22.3138 0.199805 23.9348 0.199805C25.6158 0.199805 27.1167 0.179795 28.4776 0.139771L28.5576 0.880219L26.6164 1.42055C26.3763 1.48059 26.2362 1.62067 26.2162 1.86082C26.2162 2.20102 26.1962 2.58126 26.1962 2.9815C26.1962 3.38175 26.1962 3.82201 26.1962 4.28229V17.4303C26.1962 18.3909 26.1561 19.2514 26.0561 20.0319C25.976 20.8124 25.8159 21.4928 25.5958 22.1132C25.3757 22.7336 25.0955 23.2739 24.7153 23.7542C24.335 24.2345 23.8547 24.6547 23.2544 25.035C22.654 25.4152 21.9336 25.7554 21.093 26.0356C20.2525 26.3357 19.2519 26.5759 18.1112 26.796L17.8311 25.9355C18.7716 25.5152 19.5121 25.055 20.0324 24.5547C20.5527 24.0544 20.953 23.474 21.2331 22.8136C21.5133 22.1732 21.6734 21.4328 21.7534 20.6123C21.8335 19.7918 21.8535 18.8912 21.8535 17.8706V4.34233C21.8535 3.86204 21.8535 3.42177 21.8535 3.02153C21.8535 2.62128 21.8335 2.26107 21.8335 1.94087C21.8335 1.68071 21.7134 1.52061 21.4933 1.46057L19.5321 0.900232L19.452 0.139771Z" fill="white"/>
<path d="M30.2584 0.139771C31.6193 0.179795 33.1202 0.199805 34.7412 0.199805C36.4222 0.199805 37.9231 0.179795 39.2839 0.139771L39.364 0.880219L37.4228 1.42055C37.1827 1.48059 37.0426 1.62067 37.0226 1.86082C37.0226 2.20102 37.0026 2.58126 37.0026 2.9815C37.0026 3.38175 37.0026 3.82201 37.0026 4.28229V17.4303C37.0026 18.3909 36.9625 19.2514 36.8625 20.0319C36.7824 20.8124 36.6223 21.4928 36.4022 22.1132C36.1821 22.7336 35.9019 23.2739 35.5217 23.7542C35.1414 24.2345 34.6611 24.6547 34.0608 25.035C33.4604 25.4152 32.74 25.7554 31.8994 26.0356C31.0589 26.3357 30.0583 26.5759 28.9176 26.796L28.6375 25.9355C29.578 25.5152 30.3185 25.055 30.8388 24.5547C31.3591 24.0544 31.7594 23.474 32.0395 22.8136C32.3197 22.1732 32.4798 21.4328 32.5598 20.6123C32.6399 19.7918 32.6599 18.8912 32.6599 17.8706V4.34233C32.6599 3.86204 32.6599 3.42177 32.6599 3.02153C32.6599 2.62128 32.6399 2.26107 32.6399 1.94087C32.6399 1.68071 32.5198 1.52061 32.2997 1.46057L30.3385 0.900232L30.2584 0.139771Z" fill="white"/>
<path d="M67.4414 12.6077C67.6015 13.128 67.7415 13.6483 67.8416 14.1686C68.0017 13.6283 68.1618 13.128 68.3219 12.6477L71.3437 3.94241C71.5439 3.36205 71.6839 2.9418 71.764 2.6216C71.844 2.32142 71.8841 2.08127 71.8841 1.88115C71.8841 1.72105 71.844 1.58096 71.744 1.50092C71.6439 1.42087 71.5038 1.34082 71.3237 1.30079L69.9229 0.90055L69.8828 0.140088C71.2837 0.180112 72.4244 0.200122 73.3049 0.200122C74.2255 0.200122 75.2861 0.180112 76.4669 0.140088L76.5469 0.880536L74.986 1.34082C74.6257 1.46089 74.3456 1.641 74.1454 1.88115C73.9653 2.12129 73.7652 2.50153 73.5851 3.02185L67.3213 20.4925L65.7403 20.6326L62.0581 9.10556C61.858 8.48518 61.6578 7.84478 61.4577 7.12434C61.2176 7.82477 60.9974 8.48518 60.7973 9.08555L56.7748 20.4925L55.2139 20.6326L49.5504 3.18194C49.3303 2.52154 49.1102 2.06126 48.91 1.82111C48.7099 1.58097 48.4097 1.40085 48.0495 1.28078L46.6487 0.880536L46.6086 0.140088C47.9094 0.180112 49.2302 0.200122 50.5711 0.200122C52.3121 0.200122 54.0132 0.180112 55.6942 0.140088L55.7742 0.880536L54.3334 1.28078C54.1332 1.34082 53.9931 1.42087 53.9131 1.50092C53.8331 1.58096 53.773 1.72105 53.773 1.90116C53.773 2.10128 53.813 2.34143 53.8731 2.66162C53.9531 2.98182 54.0732 3.40208 54.2333 3.92239L56.9149 12.6077C57.075 13.128 57.1951 13.6483 57.3152 14.1686C57.4753 13.6283 57.6154 13.128 57.7755 12.6477L62.0781 0.140088L63.539 0L67.4414 12.6077Z" fill="white"/>
<path d="M81.0694 0.199805H84.7316C87.0931 0.199805 89.5345 0.179795 92.0561 0.139771L92.1561 0.259839L91.2556 5.1028L90.4751 5.22287L89.5546 1.68071H83.9311V9.40542H84.7116C85.5521 9.40542 86.4527 9.40543 87.4333 9.38542C87.6934 9.38542 87.8535 9.24533 87.9336 8.98517L88.4539 6.98394L89.4145 6.94392C89.3945 8.34478 89.3745 9.40542 89.3745 10.1058C89.3745 10.7863 89.3945 11.8269 89.4145 13.2077L88.4539 13.2878L87.9136 11.2465C87.8335 10.9864 87.6934 10.8463 87.4533 10.8463C86.4727 10.8263 85.5521 10.8263 84.6916 10.8263H83.9311V15.8093C83.9311 16.87 83.9311 17.9306 83.9511 18.9713H89.7747L91.6158 15.1489L92.4964 15.0088L92.1561 20.4522L92.0561 20.5522C89.6346 20.5322 87.2932 20.5122 85.0118 20.5122H81.1294C79.8887 20.5122 78.5879 20.5322 77.2671 20.5522L77.187 19.8318L79.1282 19.2915C79.3683 19.2314 79.5084 19.0713 79.5284 18.8312C79.5284 18.4509 79.5485 18.0107 79.5485 17.5304C79.5485 17.0501 79.5485 16.5298 79.5485 15.9294V4.34233C79.5485 3.86204 79.5485 3.42177 79.5485 3.02153C79.5485 2.62128 79.5284 2.26107 79.5284 1.94087C79.5284 1.68071 79.4084 1.52061 79.1882 1.46057L77.2471 0.900232L77.207 0.159778C78.5478 0.17979 79.8486 0.199805 81.0694 0.199805Z" fill="white"/>
<path d="M95.1179 0.139868C96.4788 0.179893 97.8796 0.199902 99.3005 0.199902C99.8208 0.17989 100.641 0.159879 101.762 0.119855C102.883 0.0798303 103.643 0.0598145 104.063 0.0598145C106.525 0.0598145 108.366 0.460064 109.607 1.24054C110.848 2.02102 111.468 3.16171 111.468 4.64262C111.468 6.96403 110.087 8.58502 107.345 9.46555C108.946 9.68569 110.187 10.246 111.048 11.1466C111.908 12.0471 112.348 13.1478 112.348 14.4886C112.348 16.4298 111.568 17.9307 110.007 18.9914C108.446 20.052 106.245 20.5924 103.383 20.5924C102.823 20.5924 102.222 20.5723 101.622 20.5523C101.002 20.5323 100.241 20.5123 99.3205 20.5123C97.8996 20.5123 96.5388 20.5323 95.198 20.5523L95.1179 19.8319L97.0591 19.2916C97.2992 19.2315 97.4393 19.0714 97.4593 18.8313C97.4593 18.451 97.4794 18.0108 97.4794 17.5305C97.4794 17.0502 97.4794 16.5299 97.4794 15.9295V4.34243C97.4794 3.86214 97.4794 3.42187 97.4794 3.02163C97.4794 2.62138 97.4593 2.26116 97.4593 1.94097C97.4593 1.68081 97.3393 1.52071 97.1191 1.46067L95.178 0.90033L95.1179 0.139868ZM101.822 9.12534C102.322 9.12534 102.783 9.14536 103.223 9.14536C104.464 9.14536 105.384 8.84518 105.985 8.24481C106.585 7.64445 106.885 6.64384 106.885 5.22297C106.885 3.88215 106.585 2.92157 105.965 2.34121C105.344 1.76086 104.464 1.46067 103.303 1.46067C103.123 1.46067 102.903 1.46067 102.663 1.48068C102.422 1.50069 102.142 1.52071 101.842 1.56073V9.12534H101.822ZM101.822 10.4261V19.1114C102.362 19.1915 102.943 19.2515 103.543 19.2515C104.864 19.2515 105.884 18.8713 106.565 18.0908C107.245 17.3304 107.606 16.2097 107.606 14.7488C107.606 13.2879 107.265 12.2072 106.565 11.4868C105.864 10.7664 104.744 10.4261 103.183 10.4261C102.703 10.4261 102.262 10.4261 101.822 10.4261Z" fill="white"/>
</svg>
