<svg width="56" height="39" viewBox="0 0 56 39" fill="none" xmlns="http://www.w3.org/2000/svg">
<path d="M30.8069 38.8261C41.5284 38.8261 50.2199 30.1346 50.2199 19.4131C50.2199 8.69153 41.5284 0 30.8069 0C20.0853 0 11.3938 8.69153 11.3938 19.4131C11.3938 30.1346 20.0853 38.8261 30.8069 38.8261Z" fill="black"/>
<path d="M24.4218 2.23334C24.4218 2.23334 30.6352 2.31924 30.1198 2.84895C29.2894 3.24981 21.444 4.8962 21.2722 5.88403C21.9594 5.96993 35.3882 4.50965 33.0689 6.39942C31.0646 6.8146 27.414 7.5161 27.686 8.40372C28.1727 8.54688 37.6073 7.90265 36.4906 9.09091C34.973 9.59198 29.4326 11.0236 29.905 11.6679C30.5206 11.7538 39.8263 11.0379 38.4806 12.0401C36.8485 12.398 32.754 13.4145 32.6824 13.844C32.5965 14.2735 36.8199 14.5884 37.0775 14.5311C37.6359 14.6743 35.3023 15.2613 34.9014 15.9914C34.9444 16.3637 40.1842 16.0916 38.7955 16.7216C37.4068 17.3515 32.9401 18.3966 33.4125 18.9692C33.9566 19.3701 39.5257 18.5541 38.3803 19.184C37.4641 20.2577 35.0446 21.5319 35.9609 22.0043C37.0919 21.8612 48.1728 20.3866 49.0031 16.1346C48.5593 12.7845 42.2315 -2.46245 24.4218 2.23334Z" fill="#DE1414"/>
<path d="M39.9695 35.6622C39.9695 35.6622 33.9852 36.378 34.4147 35.791C35.1592 35.3043 42.4892 32.713 42.5321 31.7395C41.8592 31.7395 29.1319 34.8748 31.1219 32.756C32.9974 32.0974 36.4047 30.9521 36.0325 30.1361C35.5457 30.0645 26.5693 31.897 27.4856 30.5942C28.8742 29.9213 34.0138 27.8311 33.4841 27.2728C32.8828 27.2728 24.0353 29.1482 25.1949 28.0172C26.7125 27.4589 30.5206 25.97 30.5349 25.5405C30.5636 25.111 26.4691 25.3544 26.2257 25.4403C25.6817 25.3687 27.8435 24.5097 28.1298 23.7509C28.0439 23.393 23.0331 24.3236 24.293 23.5505C25.5528 22.7774 29.7046 21.1883 29.1749 20.6872C28.6022 20.3723 23.3481 21.8755 24.3646 21.1167C25.109 19.9571 27.2708 18.4395 26.3402 18.0959C25.2808 18.368 15.4884 23.2642 14.4719 27.4589C16.0467 30.6085 23.4483 42.4625 39.9695 35.6622Z" fill="#DE1414"/>
<path d="M13.5268 24.5098L11.6371 30.9808L1.47241 31.5105L4.46454 24.6959L13.5268 24.5098Z" fill="white" stroke="white" stroke-miterlimit="10"/>
<path d="M12.9257 24.5385L11.0216 30.9808L3.72021 31.5105L6.71235 24.7389L12.9257 24.5385Z" fill="#DE1414" stroke="white" stroke-width="0.25" stroke-miterlimit="10"/>
<path d="M6.11096 24.7388L3.21905 31.3816L1 31.5248L3.99213 24.7388H6.11096Z" fill="black"/>
<path d="M44.2786 5.7695C44.2786 5.7695 49.5184 3.03506 51.3079 5.61202C51.852 6.6428 52.4819 7.32999 50.1197 11.31C48.5162 13.1568 45.0087 17.7523 29.7904 21.7466C28.9314 21.9757 28.0151 22.2048 27.0702 22.4195C26.6837 22.4911 26.2685 22.5627 25.839 22.6342C20.7996 23.4932 13.4267 24.4811 13.4267 24.4811L11.6658 31.0523C11.6658 31.0523 29.8763 30.3078 41.673 23.6937C46.0681 21.1597 51.58 17.8955 54.2285 11.3959C55.0302 8.33214 55.9178 4.91051 52.0524 3.5075C48.187 2.10449 43.391 4.73871 43.391 4.73871L44.2786 5.7695Z" fill="black" stroke="white" stroke-miterlimit="10"/>
<path d="M43.119 4.40967C43.119 4.40967 43.9923 5.16844 44.794 5.95584C45.5957 6.74324 44.1641 6.14195 44.1641 6.14195C44.1641 6.14195 42.9329 5.72678 42.9329 5.52635C42.9329 5.32592 42.7324 4.71031 42.7324 4.71031L43.119 4.40967Z" fill="black"/>
</svg>
